<?xml version="1.0" encoding="utf-8"?>
<svg version="1.1" xmlns="http://www.w3.org/2000/svg" xmlns:xlink="http://www.w3.org/1999/xlink" height="87.00562257521949" width="81.68267021577284">
  <g opacity="1">
    <g opacity="1">
      <path fill="rgb(162,28,67)" fill-opacity="1" opacity="1" fill-rule="evenodd" d="M75.27760410324929 53.56260829000054L75.27760410324929 85.43047773237043C75.27760410324929 86.80200629064964 75.07589970398377 87.00178075852224 73.70583208633111 87.00178075852224L56.9491439737627 87.00178075852224C55.71227737449295 87.00178075852224 55.44206959434478 86.74053722361191 55.44206959434478 85.52652314961688C55.44206959434478 70.23225090729323 55.445875337727145 54.941820481659455 55.43445810758004 39.64754823933582C55.43445810758004 38.61409954976409 55.769363525228464 37.791950778134535 56.519094971555056 37.07353105713114C62.22771004510777 31.610467724153445 67.91349065836627 26.124353491036604 73.62971721868374 20.665131974748768C73.91895371574374 20.38852117307901 74.40989461206928 20.323210289351426 74.8056919238356 20.161853988377402C74.96172740251271 20.58829564095161 75.25476964295508 21.010895476835962 75.25476964295508 21.43733712941017C75.28521559001403 32.14832206073353 75.27760410324929 42.85546517536703 75.27760410324929 53.56260829000054L75.27760410324929 53.56260829000054Z"/>
    </g>
    <g opacity="1">
      <path fill="rgb(162,28,67)" fill-opacity="1" opacity="1" fill-rule="evenodd" d="M40.38654877369547 53.66249552394207C42.399787022968376 51.64938357845661 44.32168743106443 49.72847523352774 46.239782095778125 47.803725071909014C47.08085138328154 46.96236721683017 47.88005749357892 46.07106574478317 48.77060144505313 45.28733514005219C49.17401024358418 44.93004618789542 49.74487175093945 44.7686898869214 50.24342413402971 44.515129985390786C50.40326535608918 45.02993342183172 50.700113339913926 45.5408950415828 50.700113339913926 46.05569847802374C50.7267535435905 56.22114543938732 50.71914205682577 66.38659240075091 50.71914205682577 76.55588117880434L50.71914205682577 85.44200318244529C50.71914205682577 86.75590449037664 50.4755744803542 87.00562257521739 49.212067677407866 87.00562257521739L32.371653210427546 87.00562257521739C31.11956363762833 87.00562257521739 30.887413291303854 86.77511357382593 30.887413291303854 85.52652314962216C30.887413291303854 72.514290021074 30.883607547921486 59.49821507583597 30.9064420082157 46.485981947287804C30.9064420082157 46.03264757788459 31.18806701851096 45.57931320848138 31.336491010423327 45.125978839078165C31.777957242778065 45.333436940330486 32.31456705969201 45.43716599095664 32.638055247193336 45.75987859290469C34.9938104008794 48.13027949054692 37.3077023773594 50.54678218846743 39.63681732736889 52.94407580293867C39.86516193031099 53.178426621019995 40.11634099354731 53.40509380572159 40.386548773695466 53.66249552394207L40.38654877369547 53.66249552394207Z"/>
    </g>
    <g opacity="1">
      <path fill="rgb(162,28,67)" fill-opacity="1" opacity="1" fill-rule="evenodd" d="M40.31043390604603 37.21183645796209L70.18551945763792 7.053575442578815C69.27975253263425 6.173799420601393 68.31689945689504 5.259447048415249 67.38449232821478 4.318201959400103C67.18659367233161 4.1184274915275 66.92780312233057 3.7188785557822945 67.00391798997794 3.5575222548082692C67.11428454806662 3.3193296200370894 67.47963591277399 3.1272387855442023 67.77267815321636 3.0619279018166203C71.85624080249764 2.112999179421758 75.94741493854366 1.1871213571660422 80.03478333120734 0.2574017182204689C80.19843029664916 0.2189835513218911 80.362077262091 0.17672356773345627 80.52952997091522 0.14983085090445186C81.42387966577179 0 81.68267021577284 0.2497180848407535 81.49999453341917 1.1487031902674647C81.18792357606496 2.6777462328308466 80.84921241503416 4.20294745870437 80.51811274076812 5.728148684577893C79.91299954297155 8.528833051484188 79.3154978319397 11.33335923508034 78.7027731473784 14.134043601986635C78.50106874811287 15.05992142424235 78.13571738340549 15.175175924938081 77.48112952163812 14.518225270972408C76.54111090619314 13.576980181957259 75.62773249442472 12.612684192802968 74.45556353265526 11.40251193549778C74.23102467309552 11.771326337724124 74.101629398095 12.11708983981132 73.86947905177053 12.3552824745825C63.02691615540297 23.315985490746638 52.17674177227068 34.26900487353107 41.32656738913839 45.22202425631548C40.43221769428182 46.124851178432046 40.43221769428182 46.124851178432046 39.54547948618998 45.22970788969519C35.39721919940843 41.03444406437054 31.252764656009255 36.843022055735744 27.11592159937481 32.64775823041109C26.898994226579813 32.42493286239934 26.720124287608492 32.16368932748901 26.461333737607447 31.848660358920675C26.130234063341394 32.16753114417887 25.890472230252186 32.39035651219062 25.66212762731009 32.62086551358209C18.80037230889987 39.5476610053956 11.938616990489653 46.47061468051925 5.076861672079438 53.39741017233275C4.266238331634971 54.21571712727245 4.262432588252601 54.21571712727245 3.428974787513923 53.3743592721936C2.4699274551570882 52.410063283039314 1.537520326476832 51.41503276036616 0.5480270470610484 50.485313121420575C0 49.97050968497964 0.02664020367657894 49.63242981627216 0.5518327904434169 49.106100929761645C4.958883627226017 44.69569536980496 9.33548851694967 40.25839709301927 13.723510636820432 35.828782449613286L25.570789786133236 23.869207094086153C26.38521886996007 23.047058322456596 26.38521886996007 23.050900139146453 27.21867667069875 23.8922579942253C31.347908240568458 28.06062910272095 35.47713981043817 32.225158394526744 39.602565636925505 36.397371319712256C39.865161930308915 36.65477303793272 40.085895046486286 36.950592923051765 40.31043390604602 37.2118364579621L40.31043390604603 37.21183645796209Z"/>
    </g>
    <g opacity="1">
      <path fill="rgb(162,28,67)" fill-opacity="1" opacity="1" fill-rule="evenodd" d="M25.723019521431997 64.26206777126168L25.723019521431997 85.35364139858066C25.723019521431997 86.82889900748603 25.54414958246068 87.00562257521949 24.0561039199546 87.00562257521949L7.307027294150917 87.00562257521949C6.169110022822741 87.00562257521949 5.849427578703788 86.69443542334102 5.849427578703788 85.5418904163837C5.84562183532142 77.48560081775202 5.853233322086157 69.4331530358102 5.841816091939052 61.37686343717852C5.841816091939052 60.20126753008205 6.230001916940637 59.256180624377045 7.0977114081206505 58.43019003605764C12.734017357408371 53.05933030363653 18.343683103019515 47.66157785438641 23.96096033539539 42.27535085520586C24.082744123631183 42.15625453782027 24.196916425102238 42.02947458705496 24.330117443485133 41.925745536428806C25.018956995693827 41.399416649918294 25.59362424643147 41.63376746799962 25.69637931775542 42.49049258983789C25.730631008196735 42.77094520819751 25.719213778049628 43.05908145993684 25.719213778049628 43.34337589498631C25.723019521431997 50.312431370388246 25.723019521431997 57.28532866248004 25.723019521431997 64.26206777126168L25.723019521431997 64.26206777126168Z"/>
    </g>
  </g>
</svg>