<?xml version="1.0" encoding="utf-8"?>
<svg version="1.1" xmlns="http://www.w3.org/2000/svg" xmlns:xlink="http://www.w3.org/1999/xlink" height="109.09526121341867" width="76.89287867160164">
  <g opacity="1">
    <g opacity="1">
      <g opacity="1">
        <path fill="rgb(239,64,44)" fill-opacity="1" opacity="1" fill-rule="evenodd" d="M61.43931366722258 9.422179876449881C58.1986825440609 12.952622674320144 55.05076305322383 16.37355433411907 51.798016573497065 19.917169462276227C51.34657376843918 19.588636048062217 50.69765713016997 19.089378902090818 50.03260827914824 18.62498968923174C39.19415846558067 10.928991148874715 25.256121011430473 11.458983732182187 14.74012108890379 19.96985878342375C4.570801770548286 28.200240683850524 0.00000815734019621317 42.86104429314962 3.8170581433893496 56.072116727933704C7.4849661464816615 68.7661106287112 15.542196566317203 76.46675822681658 27.45683989808466 79.47159921814165C28.08159061122662 79.62915061961218 29.061055640914496 80.28621744804016 29.089303210232135 80.7681697679484C29.20857792379578 82.73911197224629 29.193287955082575 84.71961057302684 29.1772205303331 86.7897326759554C29.17158397407017 87.51679365159399 29.165882629804226 88.25470242864536 29.165882629804226 89.0073332218998C28.350136883753176 89.0073332218998 27.559464094871636 89.01430680852226 26.786413642812118 89.02102211415871C25.023337716572122 89.03651897331976 23.352195966620464 89.05098270853672 21.684941496850136 88.98098856132601C20.153288317405025 88.9153851908776 19.443924472316223 89.42781466713595 19.54065296082819 91.2019467600886C19.645415161714904 93.09411326365127 19.641398305527535 94.99971037848674 19.54868667320293 96.8918768820494C19.464073541256088 98.58697499328089 20.028377047578456 99.25721415199573 21.628511146217903 99.18722000478502C23.339562306031162 99.11412648574209 25.05067825384745 99.12988162588913 26.818807644323165 99.14641160899426C27.5913397923585 99.15364347660274 28.374821112904577 99.16087534421129 29.173916342178973 99.16087534421129C29.173916342178973 100.03360679596368 29.17916417042376 100.87715249629616 29.184282422662495 101.70003571774716C29.1959442632065 103.57360599031658 29.20695822372024 105.33998965368872 29.15376727323911 107.10224082128471C29.109452279171997 108.55223027678569 29.633392859611604 109.04270586923252 30.92319242377527 108.98588405230876C32.732980500194174 108.90710835157347 34.5548191451752 108.88515446776199 36.36059036540676 108.9990563825956C37.92042632616647 109.09539519038005 38.54116018312107 108.49954095563815 38.47261447592371 106.76053507678385C38.40542931678979 105.06052962681811 38.419877041463735 103.35613340008999 38.4350374341709 101.5742528775567C38.44164581047913 100.78985352302227 38.44844855079646 99.99047387129878 38.44844855079646 99.1696568977358C39.25596622046373 99.1696568977358 40.036078564852666 99.16345815407144 40.796948872344025 99.157517691393C42.512340828359754 99.14382879913411 44.13009726382122 99.13091474983327 45.74396641910134 99.19161078154731C47.23123981647632 99.24404182170879 48.00111565638777 98.85429581380878 47.86810588618342 97.00138802012073C47.72706240360436 95.0389690883614 47.7512283287316 93.05485455377664 47.864089029996066 91.0924356220173C47.960817518508016 89.42781466713595 47.36023273049328 88.91977596763986 45.88902675786781 88.98098856132601C44.216330095843624 89.0512409895227 42.54156021772273 89.03626069233371 40.823641529589146 89.02076383317268C40.08272592702858 89.0140485275362 39.33377661209325 89.0073332218998 38.573424608626055 89.0073332218998L38.573424608626055 79.65988605694818C60.181778528563875 75.17018767700978 71.35472880173452 48.40659534392676 59.00885652185207 28.06025238942914C62.16487451306689 24.634671671881886 65.24431308470963 21.292515712818258 68.21892466746257 18.059870891825923C68.21892466746257 18.604327210350355 68.22443164771948 19.176161313392626 68.2300682039824 19.767108209400163C68.2438680486261 21.200825962782123 68.25870450131814 22.747154226067597 68.19877559852274 24.28883343160477C68.13826360370012 25.856857297715685 68.5736389840085 26.57513671982977 70.12945808858086 26.465625581758438C71.80215475060506 26.34320039438624 73.49098362538174 26.3605052204494 75.16374507540894 26.465625581758438C76.51399184639222 26.54905034024203 76.89287208806537 25.96636843578701 76.88483837569065 24.569068301433525C76.83644173743312 16.982322618161813 76.83644173743312 9.391444439113828 76.87673987531286 1.8003079790798222C76.88082151950324 0.4861743222238804 76.51399184639222 0.00008950653935111894 75.26850727629564 0.008871060063938785C68.2833887304696 0.056911323463153654 61.298270184643485 0.052778827686877104 54.31315163881741 0.013261836826232618C53.11198206278795 0.008871060063938785 52.592058338535736 0.46008794263613445 52.620241119850355 1.7786123762543702C52.660539257730065 3.6751696565792895 52.6887868270477 5.5761177136665 52.5960751947231 7.468542498215146C52.519495775150986 9.032175587563783 53.11599891897533 9.500955577185158 54.486459546901486 9.448266256037632C56.122032683193986 9.383437728547293 57.7596142475802 9.397126620806203 59.39492823186066 9.410815513065122C60.076886751671154 9.416497694757506 60.758456543463495 9.422179876449881 61.43931366722258 9.422179876449881ZM32.8377427010809 70.88169018517875C20.713510179536996 70.65827713227388 10.753780050957932 59.49304838773263 10.96738609692175 46.36540071143214C11.185073787075952 32.698978898299586 21.24153240416699 22.203731031487223 33.893787150340884 22.43153486115447C45.8728945451153 22.646166360534846 55.91730259364426 33.938469350196534 55.619018627730554 46.85587630387897C55.304667237067406 60.408654483163936 45.15543219964875 71.10949401484604 32.8377427010809 70.88169018517875Z"/>
      </g>
      <g opacity="1">
        <path fill="rgb(239,64,44)" fill-opacity="1" opacity="1" fill-rule="evenodd" d="M47.4408612817156 44.45984325951163L39.87127739983285 44.45984325951163C33.627781429099954 44.45546297841992 27.384285458367053 44.4160404485945 21.14482014997808 44.48174466497019C19.69378170616669 44.499265789337045 19.15367295208134 44.074378523440885 19.13755030270566 42.40549142749825C19.07305970520293 36.386985207484635 19.020661094731963 36.386985207484635 24.58700579168621 36.386985207484635C31.568112971356562 36.386985207484635 38.549220151026915 36.435168299493476 45.530327330697276 36.36070352093435C47.03779504732354 36.3431823965675 47.565811814377135 36.84691472211449 47.46907591812305 38.47637928823172C47.356217372493276 40.346759314393154 47.44086128171561 42.230280183829734 47.44086128171561 44.45984325951163L47.4408612817156 44.45984325951163Z"/>
      </g>
      <g opacity="1">
        <path fill="rgb(239,64,44)" fill-opacity="1" opacity="1" fill-rule="evenodd" d="M33.26099115580256 57.2765457338602C29.30288073407261 57.280926014951916 25.340739649998728 57.219602079667936 21.382629228268772 57.3072077015022C19.802609589451926 57.34224995023591 19.125458315673278 56.921742965431406 19.137550302705037 55.011940409444286C19.173826263800326 49.13360318436465 19.101274341609752 49.137983465456365 24.550729830590303 49.14236374654808C31.463315750414 49.14674402763979 38.3759016702377 49.186166557465214 45.28848759006141 49.09856093563094C46.94508981341275 49.07665953017238 47.4851985674981 49.61981438554486 47.473106580466336 51.446391600789426C47.43683061937105 57.263404890585065 47.49729055452986 57.26778517167678 42.1244176500838 57.2765457338602C39.16994215199006 57.2765457338602 36.215466653896314 57.2721654527685 33.260991155802564 57.2765457338602L33.26099115580256 57.2765457338602Z"/>
      </g>
    </g>
  </g>
</svg>