<?xml version="1.0" encoding="utf-8"?>
<svg version="1.1" xmlns="http://www.w3.org/2000/svg" xmlns:xlink="http://www.w3.org/1999/xlink" height="257.96109671238446" width="370.45533147009996">
  <defs>
    <rect id="rect-4" opacity="1" x="2.3551126635424" y="139.24989861344375" width="51.42161856308733" height="63.091690540877664"/>
    <mask id="mask-5" maskUnits="userSpaceOnUse" maskContentUnits="userSpaceOnUse">
      <rect opacity="1" x="0" y="0" width="370.45533147009996" height="257.96109671238446" fill="Black"/>
      <use xlink:href="#rect-4" fill="White"/>
    </mask>
    <rect id="rect-23" opacity="1" x="195.7003984607516" y="135.10723766754018" width="46.11902125686182" height="72.39300002966793"/>
    <mask id="mask-24" maskUnits="userSpaceOnUse" maskContentUnits="userSpaceOnUse">
      <rect opacity="1" x="0" y="0" width="370.45533147009996" height="257.96109671238446" fill="Black"/>
      <use xlink:href="#rect-23" fill="White"/>
    </mask>
    <rect id="rect-40" opacity="1" x="325.28287723973176" y="183.78350378190908" width="43.19415959299354" height="70.42523608036353"/>
    <mask id="mask-41" maskUnits="userSpaceOnUse" maskContentUnits="userSpaceOnUse">
      <rect opacity="1" x="0" y="0" width="370.45533147009996" height="257.96109671238446" fill="Black"/>
      <use xlink:href="#rect-40" fill="White"/>
    </mask>
    <rect id="rect-56" opacity="1" x="116.51110587359663" y="64.68200158717696" width="43.1941595929935" height="70.4252360803635"/>
    <mask id="mask-57" maskUnits="userSpaceOnUse" maskContentUnits="userSpaceOnUse">
      <rect opacity="1" x="0" y="0" width="370.45533147009996" height="257.96109671238446" fill="Black"/>
      <use xlink:href="#rect-56" fill="White"/>
    </mask>
  </defs>
  <g opacity="1">
    <g opacity="0.8">
      <path fill-opacity="0" stroke="rgb(63,61,86)" stroke-opacity="1" stroke-width="3" stroke-linecap="butt" stroke-linejoin="miter" opacity="1" fill-rule="evenodd" d="M22.57409308254806 163.92980119866706L288.0448310379024 163.92980119866706"/>
    </g>
    <g opacity="0.8">
      <path fill-opacity="0" stroke="rgb(63,61,86)" stroke-opacity="1" stroke-width="3" stroke-linecap="butt" stroke-linejoin="miter" opacity="1" fill-rule="evenodd" d="M79.68294265871346 163.91944454629927C79.68294265871346 163.91944454629927 110.4227862357271 168.21745527767436 94.50265312859528 135.00367114389132C78.58252002146345 101.78988701010826 137.6968127215887 108.07637499551714 137.6968127215887 108.07637499551714"/>
    </g>
    <g opacity="0.8">
      <path fill-opacity="0" stroke="rgb(63,61,86)" stroke-opacity="1" stroke-width="3" stroke-linecap="butt" stroke-linejoin="miter" opacity="1" fill-rule="evenodd" d="M284.4129748057891 163.91944454630135C284.4129748057891 163.91944454630135 315.1528183828027 159.631790467291 299.2326852756708 192.845574601074C283.31255216853896 226.05935873485697 342.4268448686642 219.7728707494481 342.4268448686642 219.7728707494481"/>
    </g>
    <g opacity="1">
      <g/>
      <g mask="url(#mask-5)">
        <g opacity="1">
          <g opacity="1">
            <path fill="rgb(253,165,125)" fill-opacity="1" opacity="1" fill-rule="evenodd" d="M10.70341252773549 174.47172123942937C10.70341252773549 174.47172123942937 -1.4210854715202004e-14 175.38716822126133 2.8319257152842074 195.08758727028535C4.301926233604101 196.5107445419617 6.0363724938059935 197.62468107780927 7.934820614390549 198.36488746524373L13.951531798620564 177.74902143438783L10.70341252773549 174.47172123942937Z"/>
          </g>
          <g opacity="1">
            <path fill="rgb(253,165,125)" fill-opacity="1" opacity="1" fill-rule="evenodd" d="M45.428431362436 174.47172123942937C45.428431362436 174.47172123942937 56.13184389017153 175.38716822126133 53.299918174887324 195.08758727028535C51.83258478530814 196.5097275401661 50.10129986286895 197.62360869451834 48.20607096177227 198.36488746524373L42.18935977754225 177.74902143438783L45.428431362436 174.47172123942937Z"/>
          </g>
          <g opacity="1">
            <path fill="rgb(51,51,51)" fill-opacity="1" opacity="1" fill-rule="evenodd" d="M11.164844513295009 154.2330193650887C11.164844513295009 154.2330193650887 6.070997300179945 169.22804092749632 3.2933577008436714 167.81825257547507C3.2933577008436714 167.81825257547507 30.101651293134868 191.2445408405551 53.7613501604455 167.81825257547507C50.91400325048573 162.8943300506309 47.49371944892561 158.33340084075323 43.57365573421543 154.23301936508875L11.164844513295009 154.2330193650887Z"/>
          </g>
          <g opacity="1">
            <ellipse fill="rgb(51,51,51)" fill-opacity="1" opacity="1" rx="19.913956866902733" ry="20.148988070121444" cx="28.346400210818114" cy="159.3988866835652"/>
          </g>
          <g opacity="0.1">
            <path fill="rgb(0,0,0)" fill-opacity="1" opacity="1" fill-rule="evenodd" d="M45.22033458463537 173.92611483825976L10.495315749936108 173.92611483825976L7.256244165042314 187.97822600938028C7.256244165042314 187.97822600938028 5.356230106864402 194.4870540502055 7.7176761505998 197.35240310333953C10.079122194335199 200.21775215647352 32.209762129112306 206.72658019729874 48.432263111555194 197.8192810640738C49.84961210795336 194.07295543360334 50.011729115244684 189.95933114112808 48.89369509711268 186.11071416644313C47.084157898848 179.55611377652627 48.432263111555194 185.6438362057088 48.432263111555194 185.6438362057088L45.22033458463537 173.92611483825976Z"/>
          </g>
          <g opacity="0.1">
            <path fill="rgb(0,0,0)" fill-opacity="1" opacity="1" fill-rule="evenodd" d="M45.68176657019407 173.92611483825976L10.9567477354948 173.92611483825976L7.7176761506010045 187.97822600938028C7.7176761506010045 187.97822600938028 5.817662092423092 194.4870540502055 8.17910813615849 197.35240310333953C10.540554179893888 200.21775215647352 32.671194114671 206.72658019729874 48.89369509711385 197.8192810640738C50.31104409351202 194.07295543360334 50.47316110080334 189.95933114112808 49.35512708267134 186.11071416644313C47.545589884406645 179.55611377652627 48.89369509711385 185.6438362057088 48.89369509711385 185.6438362057088L45.68176657019407 173.92611483825976Z"/>
          </g>
          <g opacity="1">
            <path fill="rgb(253,216,53)" fill-opacity="1" opacity="1" fill-rule="evenodd" d="M45.42843136243567 173.92611483825976L10.7034125277366 173.92611483825976L7.464340942842823 187.97822600938028C7.464340942842823 187.97822600938028 5.564326884664922 194.4870540502055 7.925772928400306 197.35240310333953C10.28721897213569 200.21775215647352 32.41785890691267 206.72658019729874 48.64035988935547 197.8192810640738C50.057708885753634 194.07295543360334 50.219825893044955 189.95933114112808 49.101791874912955 186.11071416644313C47.292254676648284 179.55611377652627 48.64035988935547 185.6438362057088 48.64035988935547 185.6438362057088L45.42843136243567 173.92611483825976Z"/>
          </g>
          <g opacity="0.1">
            <path fill="rgb(0,0,0)" fill-opacity="1" opacity="1" fill-rule="evenodd" d="M21.34349125353303 167.80726721168867L35.24073693620582 167.80726721168867L35.24073693620582 179.91863078132565C35.24073693620582 183.3212340327536 32.51455728718593 186.07958896905478 29.151644264045164 186.07958896905478L27.4325839256937 186.07958896905478C24.069670902552932 186.07958896905478 21.34349125353303 183.3212340327536 21.34349125353303 179.91863078132562L21.34349125353303 167.80726721168867Z"/>
          </g>
          <g opacity="1">
            <path fill="rgb(253,165,125)" fill-opacity="1" opacity="1" fill-rule="evenodd" d="M21.34349125353303 167.4795371921996L35.24073693620582 167.4795371921996L35.24073693620582 179.59090076183654C35.24073693620582 182.99350401326453 32.51455728718593 185.7518589495657 29.151644264045164 185.7518589495657L27.4325839256937 185.7518589495657C24.069670902552932 185.7518589495657 21.34349125353303 182.99350401326453 21.34349125353303 179.59090076183654L21.34349125353303 167.4795371921996Z"/>
          </g>
          <g opacity="0.1">
            <path fill="rgb(0,0,0)" fill-opacity="1" opacity="1" fill-rule="evenodd" d="M21.37063431150724 171.0589348911582C25.851338403148553 172.7378801234788 30.778128216547145 172.7378801234788 35.25883230818851 171.0589348911582L35.25883230818851 169.3287400954955L21.37063431150724 169.3287400954955L21.37063431150724 171.0589348911582Z"/>
          </g>
          <g opacity="1">
            <ellipse fill="rgb(253,165,125)" fill-opacity="1" opacity="1" rx="19.913956866902733" ry="20.148988070121455" cx="28.346400210818114" cy="162.09030081014856"/>
          </g>
          <g opacity="1">
            <path fill="rgb(51,51,51)" fill-opacity="1" opacity="1" fill-rule="evenodd" d="M9.221401562357677 155.60985162576492L48.21692818496139 156.6955717462176C45.41088820833051 147.97122957567882 37.467663881184535 141.98937301367772 28.402495863963235 141.77378594235674C12.450520692660977 141.00481047761787 9.221401562357677 155.60985162576486 9.221401562357677 155.60985162576486L9.221401562357677 155.60985162576492Z"/>
          </g>
          <g opacity="1">
            <ellipse fill="rgb(253,165,125)" fill-opacity="1" opacity="1" rx="1.854775628221291" ry="3.5153164102348464" cx="8.84863689951596" cy="158.5456900965023"/>
          </g>
          <g opacity="1">
            <ellipse fill="rgb(253,165,125)" fill-opacity="1" opacity="1" rx="1.8547756282212982" ry="3.5153164102348464" cx="47.74554374481411" cy="158.5456900965023"/>
          </g>
        </g>
      </g>
    </g>
    <g opacity="0.8">
      <rect fill="rgb(108,99,255)" fill-opacity="1" opacity="1" x="21.95889392926577" y="-2.2737367544323206e-13" width="62.97091409235679" height="43.70507297928419" rx="0" ry="0"/>
    </g>
    <g opacity="0.8">
      <rect fill="rgb(58,204,108)" fill-opacity="1" opacity="1" x="155.46212339345803" y="-2.2737367544323206e-13" width="62.970914092356765" height="43.70507297928419" rx="0" ry="0"/>
    </g>
    <g opacity="0.8">
      <rect fill="rgb(255,101,132)" fill-opacity="1" opacity="1" x="283.3441642486326" y="-2.2737367544323206e-13" width="62.97091409235674" height="43.70507297928419" rx="0" ry="0"/>
    </g>
    <g opacity="1">
      <g/>
      <g mask="url(#mask-24)">
        <g opacity="1">
          <g opacity="1">
            <path fill="rgb(190,124,94)" fill-opacity="1" opacity="1" fill-rule="evenodd" d="M203.18650445500023 182.50572904402634C203.18650445500023 182.50572904402634 193.58851660283145 183.31099044591363 196.12796731942387 200.64021581452846C197.44375777520315 201.89118358233173 198.99623943571615 202.8709951035785 200.69573330486008 203.52305163328504L206.09105191998452 185.3885648627829L203.18650445500023 182.50572904402634Z"/>
          </g>
          <g opacity="1">
            <path fill="rgb(190,124,94)" fill-opacity="1" opacity="1" fill-rule="evenodd" d="M234.33331372336403 182.50572904402634C234.33331372336403 182.50572904402634 243.93130157553267 183.31099044591363 241.3918508589403 200.64021581452846C240.07606040316105 201.89118358233173 238.52357874264808 202.8709951035785 236.82408487350415 203.52305163328504L231.42876625837977 185.3885648627829L234.33331372336403 182.50572904402634Z"/>
          </g>
          <g opacity="1">
            <path fill="rgb(51,51,51)" fill-opacity="1" opacity="1" fill-rule="evenodd" d="M203.6083940309196 154.07194894338363C203.6083940309196 154.07194894338363 202.87008727306048 156.20589165838496 201.8234765943371 158.67804416217894C199.53553697108134 164.08134816884268 202.1480070373521 184.8248818814593 207.6082317410795 187.0312981226305C213.74185711406304 189.51150324044335 221.80643862298584 191.09786820216132 230.18743731384825 188.0700853310651C237.48937228168577 185.43688054689363 239.71240581633856 161.82661624355825 234.56859829455072 156.06899722006412C233.968216974973 155.39257764247878 233.33538261109373 154.72421067891233 232.67820846398837 154.07194894338363L203.6083940309196 154.07194894338363Z"/>
          </g>
          <g opacity="1">
            <ellipse fill="rgb(51,51,51)" fill-opacity="1" opacity="1" rx="17.85728762690042" ry="17.72380345553921" cx="219.01628813916344" cy="152.8318463844824"/>
          </g>
          <g opacity="0.1">
            <path fill="rgb(0,0,0)" fill-opacity="1" opacity="1" fill-rule="evenodd" d="M234.14670871863095 182.50572904402634L203.00801271134168 182.50572904402634L200.10346524635742 194.86649156299617C200.10346524635742 194.86649156299617 198.39968042052868 200.59190013041479 200.51724156120156 203.11236831832198C202.6348027018744 205.63283650622918 222.47983929224168 211.3582450736478 237.026916400389 203.5230516332845C238.3085644701058 200.23120404698864 238.46534246333675 196.61265563258772 237.47314575953465 193.22375830314613C235.85049354445965 187.45808666563315 237.05936944469053 192.8130749881836 237.05936944469053 192.8130749881836L234.14670871863095 182.50572904402634Z"/>
          </g>
          <g opacity="0.1">
            <path fill="rgb(0,0,0)" fill-opacity="1" opacity="1" fill-rule="evenodd" d="M234.56048503347552 182.50572904402634L203.39744924296 182.50572904402634L200.49290177797573 194.86649156299617C200.49290177797573 194.86649156299617 198.78911695214697 200.59190013041479 200.90667809281985 203.11236831832198C203.02423923349272 205.63283650622918 222.86927582386005 211.3582450736478 237.41635293200744 203.5230516332845C238.68732127172734 200.22764350043786 238.83269519453745 196.60914572794286 237.8301292468516 193.22375830314613C236.20747703177656 187.45808666563315 237.41635293200744 192.8130749881836 237.41635293200744 192.8130749881836L234.56048503347552 182.50572904402634Z"/>
          </g>
          <g opacity="1">
            <path fill="rgb(58,210,159)" fill-opacity="1" opacity="1" fill-rule="evenodd" d="M234.33331372336409 182.50572904402634L203.18650445499932 182.50572904402634L200.28195699001506 194.86649156299617C200.28195699001506 194.86649156299617 198.5781721641863 200.59190013041479 200.69573330485917 203.11236831832198C202.81329444553205 205.63283650622918 222.6583310358994 211.3582450736478 237.2054081440468 203.5230516332845C238.47637648376667 200.22764350043786 238.6217504065768 196.60914572794286 237.61918445889097 193.22375830314613C235.99653224381592 187.45808666563315 237.2054081440468 192.8130749881836 237.2054081440468 192.8130749881836L234.33331372336409 182.50572904402634Z"/>
          </g>
          <g opacity="0.1">
            <path fill="rgb(0,0,0)" fill-opacity="1" opacity="1" fill-rule="evenodd" d="M212.73581274071626 172.2466987839848L225.19778175249218 172.2466987839848L225.19778175249218 182.90835974497256C225.19778175249218 184.3456764392041 224.62250973002227 185.72412438365123 223.59851896357276 186.740460764855C222.57452819712321 187.75679714605874 221.18569867842257 188.32776897967406 219.73755704876484 188.32776897967406L218.1960374444436 188.32776897967406C215.18043860992563 188.32776897967406 212.73581274071626 185.90141681839037 212.73581274071626 182.90835974497259L212.73581274071626 172.2466987839848Z"/>
          </g>
          <g opacity="1">
            <path fill="rgb(190,124,94)" fill-opacity="1" opacity="1" fill-rule="evenodd" d="M212.73581274071626 171.78769978490436L225.19778175249218 171.78769978490436L225.19778175249218 182.43325551785458C225.19778175249218 183.87057221208616 224.62250973002227 185.24902015653333 223.59851896357276 186.2653565377371C222.57452819712321 187.28169291894088 221.18569867842257 187.8526647525562 219.73755704876484 187.8526647525562L218.1960374444436 187.8526647525562C215.18043860992563 187.8526647525562 212.73581274071626 185.42631259127245 212.73581274071626 182.4332555178546L212.73581274071626 171.78769978490436Z"/>
          </g>
          <g opacity="0.1">
            <path fill="rgb(0,0,0)" fill-opacity="1" opacity="1" fill-rule="evenodd" d="M212.76015252394197 173.57538009709864C216.77809944781288 175.05224311407497 221.19606135077177 175.05224311407497 225.2140082746427 173.57538009709864L225.2140082746427 172.0534360475317L212.76015252394197 172.0534360475317L212.76015252394197 173.57538009709864Z"/>
          </g>
          <g opacity="1">
            <ellipse fill="rgb(190,124,94)" fill-opacity="1" opacity="1" rx="17.85728762690042" ry="17.723803455539247" cx="219.01628813916344" cy="156.68099588550362"/>
          </g>
          <g opacity="1">
            <path fill="rgb(51,51,51)" fill-opacity="1" opacity="1" fill-rule="evenodd" d="M201.94517551046746 149.949010565726L236.02087202704269 149.949010565726C236.02087202704269 149.949010565726 233.11632456205842 136.29982980373597 220.24057923543822 137.16951211777427C207.364833908818 138.03919443181258 201.9451755104675 149.949010565726 201.9451755104675 149.949010565726L201.94517551046746 149.949010565726Z"/>
          </g>
          <g opacity="1">
            <ellipse fill="rgb(190,124,94)" fill-opacity="1" opacity="1" rx="1.6632185204519203" ry="3.092203783247042" cx="201.52328593454737" cy="155.9240501677296"/>
          </g>
          <g opacity="1">
            <ellipse fill="rgb(190,124,94)" fill-opacity="1" opacity="1" rx="1.6632185204519123" ry="3.092203783247042" cx="236.40219529758465" cy="155.9240501677296"/>
          </g>
          <g opacity="0.1">
            <path fill="rgb(0,0,0)" fill-opacity="1" opacity="1" fill-rule="evenodd" d="M201.94517551046746 150.4080095647979L236.02087202704269 150.4080095647979C236.02087202704269 150.4080095647979 233.11632456205842 136.7588288028087 220.24057923543822 137.62851111684694C207.364833908818 138.49819343088518 201.9451755104675 150.4080095647979 201.9451755104675 150.4080095647979L201.94517551046746 150.4080095647979Z"/>
          </g>
        </g>
      </g>
    </g>
    <g opacity="1">
      <g/>
      <g mask="url(#mask-41)">
        <g opacity="1">
          <g opacity="1">
            <path fill="rgb(77,138,240)" fill-opacity="1" opacity="1" fill-rule="evenodd" d="M332.2954491256543 229.89284077512684C332.2954491256543 229.89284077512684 323.3045826023565 230.6762138127282 325.6834002031952 247.53440158190966C326.91596025044174 248.751365933993 328.3702395852907 249.70454452404704 329.96223186221187 250.3388770565226L335.0162692569651 232.69731624973977L332.2954491256543 229.89284077512684Z"/>
          </g>
          <g opacity="1">
            <path fill="rgb(77,138,240)" fill-opacity="1" opacity="1" fill-rule="evenodd" d="M361.464464946802 229.89284077512684C361.464464946802 229.89284077512684 370.45533147009985 230.6762138127282 368.07651386926113 247.53440158190966C366.8439538220146 248.751365933993 365.3896744871657 249.70454452404704 363.7976822102445 250.3388770565226L358.7436448154913 232.69731624973977L361.464464946802 229.89284077512684Z"/>
          </g>
          <g opacity="1">
            <ellipse fill="rgb(51,51,51)" fill-opacity="1" opacity="1" rx="16.727723768198356" ry="17.24204055760642" cx="347.11631878506563" cy="201.0255443395155"/>
          </g>
          <g opacity="1">
            <path fill="rgb(77,138,240)" fill-opacity="1" opacity="1" fill-rule="evenodd" d="M361.28966365344957 229.89284077512684L332.1206478323022 229.89284077512684L329.3998277009914 241.91761690230805C329.3998277009914 241.91761690230805 327.803815892122 247.48739919965388 329.7874305688597 249.9393568073462C331.77104524559746 252.3913144150385 350.3607827908102 257.96109671238435 363.9876836160622 250.3388770565229C365.1782567730366 247.13304367979077 365.3144350591613 243.61290278523194 364.3752864839305 240.31953590560127C362.8552752373881 234.7105849563754 363.9876836160622 239.92001565642457 363.9876836160622 239.92001565642457L361.28966365344957 229.89284077512684Z"/>
          </g>
          <g opacity="1">
            <path fill="rgb(77,138,240)" fill-opacity="1" opacity="1" fill-rule="evenodd" d="M361.68486657755034 229.89284077512684L332.5082507001702 229.89284077512684L329.7874305688594 241.91761690230805C329.7874305688594 241.91761690230805 328.19141875999 247.48739919965388 330.1750334367277 249.9393568073462C332.15864811346546 252.3913144150385 350.7483856586782 257.96109671238435 364.37528648393027 250.3388770565229C365.5658596409047 247.13304367979077 365.7020379270294 243.61290278523194 364.76288935179855 240.31953590560127C363.2428781052562 234.7105849563754 364.37528648393027 239.92001565642457 364.37528648393027 239.92001565642457L361.68486657755034 229.89284077512684Z"/>
          </g>
          <g opacity="1">
            <path fill="rgb(77,138,240)" fill-opacity="1" opacity="1" fill-rule="evenodd" d="M361.4644649468019 229.89284077512684L332.2954491256546 229.89284077512684L329.5746289943438 241.91761690230803C329.5746289943438 241.91761690230803 327.9786171854744 247.48739919965385 329.9622318622121 249.93935680734617C331.9458465389498 252.39131441503847 350.53558408416256 257.95326298200825 364.21568530304353 250.31537586539483C365.4062584600179 247.10954248866273 365.54243674614264 243.5894015941039 364.6032881709118 240.29603471447322C363.08327692436944 234.68708376524737 364.21568530304353 239.89651446529652 364.21568530304353 239.89651446529652L361.4644649468019 229.89284077512684Z"/>
          </g>
          <g opacity="0.1">
            <path fill="rgb(0,0,0)" fill-opacity="1" opacity="1" fill-rule="evenodd" d="M341.240715311556 219.91266827608024L352.9068016287684 219.91266827608024L352.9068016287684 230.2766935635466C352.9068016287684 231.67494156365743 352.3679184744783 233.0159209659808 351.40870030875027 234.00463160863973C350.4494821430222 234.99334225129866 349.14850312340064 235.54879410660394 347.79196378415344 235.54879410660394L346.34795309993825 235.54879410660394C344.991413760691 235.54879410660394 343.69043474106945 234.99334225129866 342.7312165753414 234.00463160863973C341.7719984096134 233.0159209659808 341.2331152553233 231.67494156365743 341.2331152553233 230.2766935635466L341.2331152553233 219.91266827608024L341.240715311556 219.91266827608024Z"/>
          </g>
          <g opacity="1">
            <path fill="rgb(253,165,125)" fill-opacity="1" opacity="1" fill-rule="evenodd" d="M341.240715311556 219.46614564465017L352.9068016287684 219.46614564465017L352.9068016287684 229.83017093211652C352.9068016287684 231.22841893222738 352.3679184744783 232.56939833455073 351.40870030875027 233.55810897720966C350.4494821430222 234.5468196198686 349.14850312340064 235.10227147517386 347.79196378415344 235.10227147517386L346.34795309993825 235.10227147517386C344.991413760691 235.10227147517386 343.69043474106945 234.5468196198686 342.7312165753414 233.55810897720966C341.7719984096134 232.56939833455073 341.2331152553233 231.22841893222738 341.2331152553233 229.83017093211652L341.2331152553233 219.46614564465017L341.240715311556 219.46614564465017Z"/>
          </g>
          <g opacity="0.1">
            <path fill="rgb(0,0,0)" fill-opacity="1" opacity="1" fill-rule="evenodd" d="M341.2635154802548 221.19740005775304C345.0273069172336 222.6341194447975 349.1658103604885 222.6341194447975 352.9296017974673 221.19740005775304L352.9296017974673 219.76382739894234L341.2635154802548 219.76382739894234L341.2635154802548 221.19740005775304Z"/>
          </g>
          <g opacity="1">
            <ellipse fill="rgb(253,165,125)" fill-opacity="1" opacity="1" rx="16.727723768198356" ry="17.242040557606423" cx="347.11631878506563" cy="204.76223372887367"/>
          </g>
          <g opacity="0.1">
            <path fill="rgb(0,0,0)" fill-opacity="1" opacity="1" fill-rule="evenodd" d="M331.1250404658168 198.65975776596147L363.0452766432058 198.65975776596147C363.0452766432058 198.65975776596147 360.3016563431969 185.3894185089939 348.2555672143489 186.23546138960344C336.20947808550096 187.08150427021297 331.1250404658168 198.65975776596147 331.1250404658168 198.65975776596147L331.1250404658168 198.65975776596147Z"/>
          </g>
          <g opacity="1">
            <path fill="rgb(51,51,51)" fill-opacity="1" opacity="1" fill-rule="evenodd" d="M331.1250404658168 198.21323513452856L363.0452766432058 198.21323513452856C363.0452766432058 198.21323513452856 360.32445651189505 184.9350621471849 348.2631672705816 185.78110502779444C336.20187802926824 186.62714790840397 331.1250404658168 198.21323513452856 331.1250404658168 198.21323513452856L331.1250404658168 198.21323513452856Z"/>
          </g>
          <g opacity="1">
            <ellipse fill="rgb(253,165,125)" fill-opacity="1" opacity="1" rx="1.5580115277059523" ry="3.0081524643890845" cx="330.73743759794843" cy="204.03369680390398"/>
          </g>
          <g opacity="1">
            <ellipse fill="rgb(253,165,125)" fill-opacity="1" opacity="1" rx="1.5580115277058058" ry="3.0081524643890845" cx="363.41007934237524" cy="204.03369680390398"/>
          </g>
        </g>
      </g>
    </g>
    <g opacity="1">
      <g/>
      <g mask="url(#mask-57)">
        <g opacity="1">
          <g opacity="1">
            <path fill="rgb(42,201,64)" fill-opacity="1" opacity="1" fill-rule="evenodd" d="M123.52367775951952 110.79133858039381C123.52367775951952 110.79133858039381 114.53281123622165 111.57471161799518 116.9116288370604 128.43289938717666C118.14418888430691 129.64986373926 119.59846821915583 130.60304232931406 121.19046049607705 131.23737486178962L126.24449789083029 113.59581405500676L123.52367775951952 110.79133858039381Z"/>
          </g>
          <g opacity="1">
            <path fill="rgb(42,201,64)" fill-opacity="1" opacity="1" fill-rule="evenodd" d="M152.692693580667 110.79133858039381C152.692693580667 110.79133858039381 161.68356010396485 111.57471161799518 159.3047425031261 128.43289938717666C158.0721824558796 129.64986373926 156.61790312103068 130.60304232931406 155.02591084410946 131.23737486178962L149.97187344935622 113.59581405500676L152.692693580667 110.79133858039381Z"/>
          </g>
          <g opacity="1">
            <ellipse fill="rgb(51,51,51)" fill-opacity="1" opacity="1" rx="16.727723768198402" ry="17.2420405576062" cx="138.34454741893092" cy="81.92404214478316"/>
          </g>
          <g opacity="1">
            <path fill="rgb(77,138,240)" fill-opacity="1" opacity="1" fill-rule="evenodd" d="M152.51789228731417 110.79133858039381L123.3488764661668 110.79133858039381L120.62805633485601 122.81611470757495C120.62805633485601 122.81611470757495 119.03204452598656 128.38589700492076 121.0156592027243 130.83785461261306C122.99927387946204 133.28981222030535 141.5890114246748 138.85959451765115 155.2159122499268 131.23737486178976C156.4064854069012 128.03154148505766 156.5426636930259 124.51140059049882 155.60351511779507 121.21803371086818C154.08350387125273 115.60908276164236 155.2159122499268 120.81851346169148 155.2159122499268 120.81851346169148L152.51789228731417 110.79133858039381Z"/>
          </g>
          <g opacity="1">
            <path fill="rgb(77,138,240)" fill-opacity="1" opacity="1" fill-rule="evenodd" d="M152.91309521141517 110.79133858039381L123.73647933403512 110.79133858039381L121.01565920272435 122.81611470757495C121.01565920272435 122.81611470757495 119.4196473938549 128.38589700492076 121.40326207059263 130.83785461261306C123.38687674733036 133.28981222030535 141.9766142925431 138.85959451765115 155.60351511779513 131.23737486178976C156.79408827476954 128.03154148505766 156.93026656089427 124.51140059049882 155.9911179856634 121.21803371086818C154.47110673912107 115.60908276164236 155.60351511779513 120.81851346169148 155.60351511779513 120.81851346169148L152.91309521141517 110.79133858039381Z"/>
          </g>
          <g opacity="1">
            <path fill="rgb(42,201,64)" fill-opacity="1" opacity="1" fill-rule="evenodd" d="M152.69269358066674 110.79133858039381L123.52367775951942 110.79133858039381L120.80285762820864 122.81611470757495C120.80285762820864 122.81611470757495 119.2068458193392 128.38589700492074 121.19046049607692 130.83785461261306C123.17407517281465 133.28981222030535 141.76381271802737 138.85176078727514 155.44391393690836 131.2138736706617C156.63448709388277 128.00804029392964 156.77066538000747 124.4878993993708 155.83151680477664 121.19453251974015C154.3115055582343 115.58558157051432 155.44391393690836 120.79501227056346 155.44391393690836 120.79501227056346L152.69269358066674 110.79133858039381Z"/>
          </g>
          <g opacity="0.1">
            <path fill="rgb(0,0,0)" fill-opacity="1" opacity="1" fill-rule="evenodd" d="M132.4689439454206 100.81116608135062L144.1350302626329 100.81116608135062L144.1350302626329 111.175191368817C144.1350302626329 112.57343936892785 143.59614710834282 113.9144187712512 142.6369289426148 114.90312941391014C141.67771077688676 115.89184005656905 140.37673175726522 116.44729191187436 139.02019241801798 116.44729191187436L137.5761817338028 116.44729191187436C136.21964239455556 116.44729191187436 134.91866337493403 115.89184005656905 133.959445209206 114.90312941391014C133.00022704347796 113.9144187712512 132.46134388918787 112.57343936892785 132.46134388918787 111.175191368817L132.46134388918787 100.81116608135062L132.4689439454206 100.81116608135062Z"/>
          </g>
          <g opacity="1">
            <path fill="rgb(253,165,125)" fill-opacity="1" opacity="1" fill-rule="evenodd" d="M132.4689439454206 100.3646434499176L144.1350302626329 100.3646434499176L144.1350302626329 110.72866873738398C144.1350302626329 112.12691673749484 143.59614710834282 113.46789613981821 142.6369289426148 114.45660678247714C141.67771077688676 115.44531742513605 140.37673175726522 116.00076928044135 139.02019241801798 116.00076928044135L137.5761817338028 116.00076928044135C136.21964239455556 116.00076928044135 134.91866337493403 115.44531742513605 133.959445209206 114.45660678247714C133.00022704347796 113.46789613981821 132.46134388918787 112.12691673749484 132.46134388918787 110.72866873738398L132.46134388918787 100.3646434499176L132.4689439454206 100.3646434499176Z"/>
          </g>
          <g opacity="0.1">
            <path fill="rgb(0,0,0)" fill-opacity="1" opacity="1" fill-rule="evenodd" d="M132.49174411411968 102.09589786301821C136.25553555109846 103.53261725006249 140.39403899435337 103.53261725006249 144.15783043133217 102.09589786301821L144.15783043133217 100.66232520420772L132.49174411411968 100.66232520420772L132.49174411411968 102.09589786301821Z"/>
          </g>
          <g opacity="1">
            <ellipse fill="rgb(253,165,125)" fill-opacity="1" opacity="1" rx="16.727723768198402" ry="17.242040557606238" cx="138.34454741893092" cy="85.66073153414271"/>
          </g>
          <g opacity="0.1">
            <path fill="rgb(0,0,0)" fill-opacity="1" opacity="1" fill-rule="evenodd" d="M122.35326909968273 79.55825557122913L154.2735052770717 79.55825557122913C154.2735052770717 79.55825557122913 151.52988497706278 66.28791631426202 139.4837958482148 67.13395919487152C127.43770671936684 67.98000207548102 122.35326909968276 79.55825557122913 122.35326909968276 79.55825557122913L122.35326909968273 79.55825557122913Z"/>
          </g>
          <g opacity="1">
            <path fill="rgb(51,51,51)" fill-opacity="1" opacity="1" fill-rule="evenodd" d="M122.35326909968273 79.11173293979694L154.2735052770717 79.11173293979694C154.2735052770717 79.11173293979694 151.55268514576093 65.8335599524537 139.49139590444753 66.67960283306321C127.43010666313414 67.52564571367272 122.35326909968276 79.11173293979694 122.35326909968276 79.11173293979694L122.35326909968273 79.11173293979694Z"/>
          </g>
          <g opacity="1">
            <ellipse fill="rgb(253,165,125)" fill-opacity="1" opacity="1" rx="1.5580115277059203" ry="3.0081524643892763" cx="121.9656662318133" cy="84.93219460917047"/>
          </g>
          <g opacity="1">
            <ellipse fill="rgb(253,165,125)" fill-opacity="1" opacity="1" rx="1.5580115277058342" ry="3.0081524643892763" cx="154.63830797624047" cy="84.93219460917047"/>
          </g>
        </g>
      </g>
    </g>
  </g>
</svg>