<?xml version="1.0" encoding="utf-8"?>
<svg version="1.1" xmlns="http://www.w3.org/2000/svg" xmlns:xlink="http://www.w3.org/1999/xlink" height="140.3495366837799" width="134.9945802197256">
  <defs>
    <rect id="rect-1" opacity="1" x="0.009855417427388602" y="0.18235764682708577" width="134.97486938486813" height="140.00001786069683"/>
    <mask id="mask-2" maskUnits="userSpaceOnUse" maskContentUnits="userSpaceOnUse">
      <rect opacity="1" x="0" y="0" width="134.9945802197256" height="140.3495366837799" fill="Black"/>
      <use xlink:href="#rect-1" fill="White"/>
    </mask>
  </defs>
  <g opacity="1">
    <g/>
    <g mask="url(#mask-2)">
      <g opacity="1">
        <g opacity="1">
          <path fill="rgb(243,110,38)" fill-opacity="1" opacity="1" fill-rule="evenodd" d="M0.027448419243215737 94.2166864446726C0.026102290809241053 95.87520133890952 0.02466642047966807 97.53407607582258 0.02466642047966807 99.19259097005948L0.02529461374885625 103.90832924061169C0.026192032704839368 108.65285492525345 0.027089451660822484 113.39666092454299 0.01973061622176092 118.13758818242356C0.01973061622176092 119.20632093049987 0.36460872100607306 120.07246225192063 1.2959501135253528 120.62482075976476C4.0013092982320595 122.23043878061206 6.70164293678526 123.83605680145938 9.407002121491965 125.43699686751711C13.802470426001682 128.04045862924505 18.202964276664897 130.64428023364917 22.598432581174606 133.2477419953771C26.26465824205244 135.4157941189999 29.935819707188177 137.5737706476914 33.587237955292295 139.76701175864252C34.55797603997923 140.3495970512808 35.420395656679005 140.2988592339479 36.37139052433431 139.72167158145146C38.87958676441153 138.19701816273115 41.42233363429408 136.72778051613332 43.95018334950734 135.2283160847414C51.60785930091129 130.68962041084026 59.26553525231523 126.15128457961524 66.90346798668753 121.5870400757096C67.38636912690207 121.30348404692703 67.70674769418802 121.30852184439271 68.1550982045972 121.57696448077822C71.5799181663156 123.63346537480382 75.01451999465417 125.67485287643237 78.44912182299275 127.71120258059528C85.09657325564649 131.6521995694612 91.75389629681607 135.56800757099865 98.37675845007585 139.54930693958997C99.5692487587862 140.2635946516881 100.59912675267243 140.33952145634944 101.79161706138281 139.6252337442513C105.99503770931213 137.09769878718464 110.2229578947398 134.61550400730914 114.44109621354725 132.1081202401052C120.75838721229482 128.3596390829635 127.06096054016425 124.59100673595908 133.38812314742765 120.86771456614576C134.50182007180268 120.2142402663119 134.994592820533 119.3887611672927 134.9847212120172 118.05122594015478C134.9520551620194 112.95657333164826 134.95681148248613 107.86407977919848 134.96156780295283 102.75611299167555C134.96327289896917 100.93710826388913 134.96497799498556 99.11774369342655 134.96497799498556 97.29801928028787L134.96434980171637 92.98998276177961L134.96434980171637 92.85396223020629C134.9634523827604 88.59090604621302 134.96255496380445 84.32820970489588 134.96991379924344 80.06515352090264C134.96991379924344 79.01153416522335 134.61516408594332 78.24183068100275 133.67395108490828 77.71502100316312C132.28923363582632 76.94495767626638 130.9538742293234 76.08385415231133 129.5888999972731 75.27348844568913C125.1194843707904 72.61389122648644 120.65491480666995 69.95969164742557 116.18056337592931 67.31052986583039C111.83436337210307 64.73189724875469 107.49300943063916 62.15362447435513 103.1270662097813 59.61097612489144C102.58996096462542 59.29683346863869 102.41747704128545 58.94742623012621 102.41747704128545 58.33425431001778C102.42932297150442 52.825782623973325 102.42851529444405 47.319469993985585 102.42770761738367 41.805600667799325L102.42734864980125 37.67208784720925L102.42627174705407 32.52993600545491L102.42618200515851 32.32878394950385L102.42609226326289 32.12331378143935L102.4260025213673 31.913165658585292L102.42591277947169 31.69797973826555L102.42582303757608 31.47775602048013L102.42573329568047 31.25213466255291L102.42573329568047 31.020755821807768C102.4251948443069 28.093435651571834 102.42465639293331 25.167914694716494 102.42734864980125 22.242753580537283C102.43228445405914 21.072545197795147 102.03804830669579 20.201366078908706 100.98349129152001 19.5885540014764C97.09560314851436 17.334139635584805 93.23715034726494 15.029347295036407 89.37385148365324 12.734630549419379C82.603184428343 8.717706755892179 75.83251737303274 4.705820759830661 69.07656798860066 0.6637079789750648C67.96296080612119 0.00015808420984453342 67.00200458805448 0.03578250914572137 65.89826901409084 0.6993324039109415C60.38416798094817 4.012044080271362 54.84045212225807 7.279415579440669 49.31154367634167 10.566938268472693C44.2656261125354 13.570545086046058 39.22455461109144 16.58962513869259 34.15889383025353 19.56300517147188C33.08459359804614 20.196328281443026 32.66576817128881 21.03224281806971 32.66576817128881 22.27298036533136C32.68551138832046 34.24278714378596 32.66576817128881 46.21259392224056 32.695293254940665 58.182400700695176C32.70022905919858 58.921877400121694 32.44401594726539 59.327060253432784 31.862578205683935 59.66135409954823C30.182161210605543 60.628971055634814 28.511705565938563 61.61673920158413 26.8461857255295 62.60450734753344C22.450627679124192 65.2133667494032 18.060005436976788 67.82690410606254 13.664537132467073 70.4357635079323C9.697676121334897 72.7912936658136 5.7358406563562285 75.15186162116059 1.7493261700880236 77.46672955664035C0.556835861377657 78.16050623619964 -0.000012600809867664015 79.09285861002647 0.009859007705946627 80.51603639408096C0.035166222264670546 85.0831596393956 0.031307320753943144 89.64992304203409 0.027448419243215737 94.2166864446726ZM63.025361710302086 41.12693738063706C54.37235839481727 46.263331739573474 45.83754515583542 51.328837091314256 37.20419531548665 56.455155855319326L37.20419531548665 25.7987189059548C45.8178019388038 30.909924277562823 54.34767937352774 35.9754296293036 63.025361710302086 41.12693738063706ZM72.04307608949846 41.12693738063706C80.7207584262728 46.278445131970514 89.2308926439651 51.328837091314256 97.82978159640415 56.434644822780484L97.82978159640415 25.81887009581752C89.22111077734488 30.930075467425535 80.7207584262728 35.97506978662749 72.04307608949846 41.12693738063706ZM65.27734483844613 45.13846353402246C56.624251781065716 50.27485789295888 48.089528283979476 55.345401042165335 39.431499422341155 60.48683319856744L65.28228064270402 75.82008947071537C65.27734483844613 65.5321873604455 65.27734483844613 55.43644123922369 65.27734483844613 45.13846353402246ZM95.63693837745942 60.48215524377789C86.95925604068505 65.63366299511134 78.44418601873483 70.68909275192074 69.82564359115975 75.80029812352876L69.82564359115975 45.158974566561305C78.4293786059611 50.26514214070363 86.96419184494293 55.33064749244441 95.63693837745942 60.48215524377789ZM72.05788350227218 79.83737310691869C72.66400026514317 80.20693153529388 73.16170881813143 80.51603639408096 73.66435317537756 80.81470581526054C82.22869149801124 85.89064660460879 90.80290142916074 90.95579211367344 99.35243233902071 96.05188409288444C99.93889562675568 96.4012913313969 100.34291364073927 96.42684016140144 100.91456951570052 96.08714867514416C108.86291946694739 91.35089937205315 116.82123076860569 86.63516110150101 124.77451652411047 81.91402519080701C125.91280272787944 81.23536190364479 127.04121732313261 80.54626317887502 128.2485150446167 79.81686207437984C126.32669235037888 78.68731591403927 124.5232392164352 77.6387343558257 122.73441401147403 76.57503940521507C115.38724501884025 72.20870837317537 108.04985789282671 67.83194190352822 100.69281729167707 63.48072426388557C100.44145024210621 63.333908452028616 99.99309973169703 63.27813283723002 99.75160429064199 63.404797459224255C98.5886390655835 64.03272292905359 97.4700960788461 64.73693504622037 96.33180987507711 65.41056053591696C91.93625182867181 68.01941993778672 87.54078352416211 70.61820374472512 83.14522547775677 73.22670330391877C79.49380722965269 75.40483102247292 75.83745317729068 77.5829587410271 72.05788350227218 79.83737310691869ZM65.23301234202057 114.51037400713427C56.648930802355245 109.41464187059941 48.1042459548576 104.34409872139298 39.42656361808323 99.19259097005948C48.07965667546365 94.0561966111231 56.60944436829199 88.99572905684798 65.23301234202057 83.8794858877743L65.23301234202057 114.51037400713427ZM128.1549142475077 85.23177466463312C128.85956761174563 84.81147841892499 129.57409258449937 84.40629556561393 130.45616567633516 83.88956148270566L130.45616567633516 85.03925883290896L130.45535799927475 91.2936843865501L130.45535799927475 91.38220568487563C130.45383238704963 99.67262110000355 130.45230677482445 107.96267667245537 130.4758191514712 116.25309208758328C130.4758191514712 117.0278333692696 130.21467023528012 117.43337606525678 129.59868186389332 117.79789669616632C120.79778390446248 122.99510446736699 112.01169335780536 128.20742563096476 103.21573120263243 133.41470899709677C102.99891478286693 133.54641141655668 102.75257327944955 133.6327736588255 102.42734864980125 133.78462726814806L102.42734864980125 132.8069347171302L102.42833581065284 125.87168682027004L102.42833581065284 125.7669726015191C102.4299511647736 117.67878877037062 102.4315665188944 109.59060493922209 102.41254123702753 101.50242110807356C102.40760543276963 100.78309559850977 102.61948604827727 100.36747730759122 103.22560281114824 100.01303227161304C107.60635344477983 97.44483509214484 111.9722966656377 94.85144892534822 116.34317569075347 92.2577029158755C120.28042187633821 89.91764599306732 124.21766806192294 87.5721914301174 128.1549142475077 85.23177466463312ZM32.66576817128881 133.51618463176263C32.66576817128881 133.57160040388507 32.636243087636984 133.6273760186837 32.586974786953505 133.80981625547648C31.40426634486335 133.12611517084855 30.241301119804827 132.46256527608335 29.09807911177793 131.7785043487793C23.490377281526232 128.45571707748752 17.882675451274526 125.12753216605392 12.279819683385123 121.79970709729646C9.884967457448573 120.37616947056588 7.485179427254121 118.95263184383528 5.1100704183492 117.48879183737927C4.848831760262515 117.32686263312526 4.56309356467749 116.91628213967238 4.56309356467749 116.61761271849282C4.538414543387955 105.82808991771172 4.543350347645863 95.03352931946492 4.54828615190377 84.24400651868382C4.54828615190377 84.18319310641954 4.572875431297707 84.12741749162095 4.627079536239086 83.91475047003404C5.676700747156941 84.52252475000071 6.70164293678526 85.0950344477075 7.711867455535455 85.6977709302085C12.812078866178712 88.72692657778639 17.90232892641055 91.76112002282994 23.002540337053812 94.79027567040781C26.052777626544827 96.60388275805245 29.117822328809567 98.40201661062395 32.158188009784766 100.24081268559698C32.39968345083983 100.3876284974539 32.65589656277301 100.77266016090229 32.65589656277301 101.05117839221914C32.675639779804634 111.87128782047044 32.67070397554673 122.69607520351128 32.66576817128881 133.51618463176263ZM63.03029751455999 118.5478088332003L37.20913111974455 103.22462815598377L37.20913111974455 133.86595171295124C45.832609351577524 128.74970854387752 54.36248678630147 123.69427878706809 63.03029751455999 118.5478088332003Z"/>
        </g>
      </g>
    </g>
  </g>
</svg>