<?xml version="1.0" encoding="utf-8"?>
<svg version="1.1" xmlns="http://www.w3.org/2000/svg" xmlns:xlink="http://www.w3.org/1999/xlink" height="284.1954376055346" width="373.4253474479651">
  <defs>
    <rect id="rect-1" opacity="1" x="0.00082052228935936" y="0" width="373" height="282"/>
    <mask id="mask-2" maskUnits="userSpaceOnUse" maskContentUnits="userSpaceOnUse">
      <rect opacity="1" x="0" y="0" width="373.4253474479651" height="284.1954376055346" fill="Black"/>
      <use xlink:href="#rect-1" fill="White"/>
    </mask>
  </defs>
  <g opacity="1">
    <g/>
    <g mask="url(#mask-2)">
      <g opacity="1">
        <g opacity="1">
          <rect fill="rgb(255,255,255)" fill-opacity="1" opacity="1" x="107.53235205382138" y="8.570793180132796" width="175.57882882882893" height="224.7487739065974" rx="0" ry="0"/>
        </g>
        <g opacity="1">
          <rect fill="rgb(63,61,86)" fill-opacity="1" opacity="1" x="148.73499056733334" y="49.25446701260262" width="89.63887274774767" height="1.0025737583394165" rx="0" ry="0"/>
        </g>
        <g opacity="1">
          <rect fill="rgb(63,61,86)" fill-opacity="1" opacity="1" x="148.73499056733334" y="56.27164714603373" width="89.63887274774767" height="1.0025737583394698" rx="0" ry="0"/>
        </g>
        <g opacity="1">
          <rect fill="rgb(63,61,86)" fill-opacity="1" opacity="1" x="148.73499056733334" y="63.28924536693876" width="89.63887274774767" height="1.002573758339452" rx="0" ry="0"/>
        </g>
        <g opacity="1">
          <rect fill="rgb(108,99,255)" fill-opacity="1" opacity="1" x="148.73499056733334" y="101.5154010378069" width="89.63887274774767" height="1.0025737583393988" rx="0" ry="0"/>
        </g>
        <g opacity="1">
          <rect fill="rgb(108,99,255)" fill-opacity="1" opacity="1" x="148.73499056733334" y="108.53258117123801" width="89.63887274774767" height="1.0025737583393775" rx="0" ry="0"/>
        </g>
        <g opacity="1">
          <rect fill="rgb(63,61,86)" fill-opacity="1" opacity="1" x="148.73499056733334" y="115.5501793921419" width="89.63887274774767" height="1.0025737583393561" rx="0" ry="0"/>
        </g>
        <g opacity="1">
          <rect fill="rgb(63,61,86)" fill-opacity="1" opacity="1" x="148.73499056733334" y="133.29004892513012" width="89.63887274774767" height="1.0025737583393917" rx="0" ry="0"/>
        </g>
        <g opacity="1">
          <rect fill="rgb(63,61,86)" fill-opacity="1" opacity="1" x="148.73499056733334" y="140.30722905856328" width="89.63887274774767" height="1.0025737583393775" rx="0" ry="0"/>
        </g>
        <g opacity="1">
          <rect fill="rgb(63,61,86)" fill-opacity="1" opacity="1" x="148.73499056733334" y="147.3248272794658" width="89.63887274774767" height="1.002573758339825" rx="0" ry="0"/>
        </g>
        <g opacity="1">
          <rect fill="rgb(63,61,86)" fill-opacity="1" opacity="1" x="148.73499056733334" y="165.06469681245198" width="89.63887274774767" height="1.0025737583398038" rx="0" ry="0"/>
        </g>
        <g opacity="1">
          <rect fill="rgb(108,99,255)" fill-opacity="1" opacity="1" x="148.73499056733334" y="172.08187694588446" width="89.63887274774767" height="1.0025737583399388" rx="0" ry="0"/>
        </g>
        <g opacity="1">
          <rect fill="rgb(63,61,86)" fill-opacity="1" opacity="1" x="148.73499056733334" y="179.09947516679085" width="89.63887274774767" height="1.002573758339484" rx="0" ry="0"/>
        </g>
        <g opacity="1">
          <rect fill="rgb(63,61,86)" fill-opacity="1" opacity="1" x="148.73499056733334" y="196.83934469977976" width="89.63887274774767" height="1.002573758339825" rx="0" ry="0"/>
        </g>
        <g opacity="1">
          <rect fill="rgb(63,61,86)" fill-opacity="1" opacity="1" x="148.73499056733334" y="203.8565248332111" width="89.63887274774767" height="1.0025737583398109" rx="0" ry="0"/>
        </g>
        <g opacity="1">
          <rect fill="rgb(63,61,86)" fill-opacity="1" opacity="1" x="148.73499056733334" y="210.87412305411385" width="89.63887274774767" height="1.0025737583398393" rx="0" ry="0"/>
        </g>
        <g opacity="1">
          <path fill="rgb(255,255,255)" fill-opacity="1" opacity="1" fill-rule="evenodd" d="M106.90228483987433 249.59810236150568L295.50253729390835 249.59810236150568L295.50253729390835 0L106.90228483987433 0L106.90228483987433 249.59810236150568ZM294.6624677138302 248.7619162819602L107.7423936718719 248.7619162819602L107.7423936718719 0.8361860795454544L294.6624677138302 0.8361860795454544L294.6624677138302 248.7619162819602Z"/>
        </g>
        <g opacity="1">
          <path fill="rgb(63,61,86)" fill-opacity="1" opacity="1" fill-rule="evenodd" d="M253.70802772949637 19.441067457373958C253.70840063908508 17.500657501356777 254.74931763844666 15.708002048239049 256.4383205222866 14.738988169013657C254.14361194335868 13.414837625058908 251.2247721264983 13.923523923117132 249.51859070308404 15.944937096035106C247.81240927966985 17.966350268953068 247.81240927966985 20.915784645794847 249.51859070308404 22.93719781871281C251.2247721264983 24.958610991630785 254.14361194335868 25.467297289689007 256.4383205222892 24.14314674573574C254.74931763844873 23.17413286651127 253.70840063908614 21.381477413394098 253.70802772949637 19.441067457373958L253.70802772949637 19.441067457373958Z"/>
        </g>
        <g opacity="1">
          <path fill="rgb(108,99,255)" fill-opacity="1" opacity="1" fill-rule="evenodd" d="M260.848793495262 19.441067457373958C260.8491664048507 17.500657501356777 261.89008340421225 15.708002048239049 263.57908628805217 14.738988169013657C261.28437770912427 13.414837625058908 258.36553789226394 13.923523923117132 256.6593564688497 15.944937096035106C254.95317504543553 17.966350268953068 254.95317504543553 20.915784645794847 256.6593564688497 22.93719781871281C258.36553789226394 24.958610991630785 261.28437770912427 25.467297289689007 263.5790862880547 24.14314674573574C261.8900834042143 23.17413286651127 260.84916640485176 21.381477413394098 260.848793495262 19.441067457373958L260.848793495262 19.441067457373958Z"/>
        </g>
        <g opacity="1">
          <ellipse fill="rgb(63,61,86)" fill-opacity="1" opacity="1" rx="5.460585585585505" ry="5.435137138621183" cx="267.9895592610276" cy="19.44106745737842"/>
        </g>
        <g opacity="1">
          <path fill="rgb(63,61,86)" fill-opacity="1" opacity="1" fill-rule="evenodd" d="M262.41568132003994 249.868485884234L262.8664896149281 250.03653675426239L262.972705308961 249.56899857954647C262.99609945295344 249.4666659268476 265.25775579976784 239.20148037997257 260.6389039341967 230.67563698508616C256.0200128167061 222.15010653409178 246.16067643722744 218.39008567116562 246.06160459253454 218.35315829190426L245.6109925572436 218.18479447798381L245.50454135169403 218.65233265269973C245.48114720770158 218.7546653053986 243.21953011280664 229.01985085227363 247.83838197837775 237.54569424716004C252.4570375843516 246.0712246981544 262.31660947534704 249.83124556108058 262.41568132003994 249.868485884234ZM262.24835038742276 248.8958562677567C260.2742536025022 248.05215953480214 252.48290459926946 244.35723100142147 248.57800589658223 237.1488813920464C244.67679687432334 229.94804243608047 245.8534516636889 221.43252618963157 246.2289747770712 219.3254749644895C248.20389585230018 220.17104936079633 255.99830650525007 223.8719238281259 259.8993192679117 231.0724498401998C263.80072454976784 238.27360174005779 262.62367724120776 246.78974387429076 262.24835038742276 248.8958562677567Z"/>
        </g>
        <g opacity="1">
          <path fill="rgb(108,99,255)" fill-opacity="1" opacity="1" fill-rule="evenodd" d="M251.36811220021693 234.5552664195688C259.6684417159827 239.5257453224599 262.86516512814484 249.39848797627772 262.86516512814484 249.39848797627772C262.86516512814484 249.39848797627772 252.60439297724395 251.2124900815409 244.30406346147817 246.2420111786498C236.00373394571238 241.2715322757587 232.80701053355025 231.3987896219409 232.80701053355025 231.3987896219409C232.80701053355025 231.3987896219409 243.06778268445115 229.58479169755242 251.36811220021693 234.5552664195688L251.36811220021693 234.5552664195688Z"/>
        </g>
        <g opacity="1">
          <path fill="rgb(63,61,86)" fill-opacity="1" opacity="1" fill-rule="evenodd" d="M142.39609079256013 67.10303928836021C142.3924343442747 83.73438597864656 133.20961041144113 99.01916025217238 118.49132727904396 106.89242401779092C118.49132727904396 106.89242401779092 117.67851491418179 107.33141586360118 116.84052504931691 107.73277983691473C104.2793036849737 113.78924493559762 89.61834601409689 113.76303801158953 77.07906108535302 107.66170496664047C77.07906108535302 107.66170496664047 75.4786894637314 106.88403300222237 73.9539259502179 105.9809933283899C72.92061513940709 105.37894736841956 71.91670748174941 104.73091178650702 70.94220297724492 104.04524833209635C57.90647727935439 94.92256857786377 50.63447772218675 79.66191332443466 51.784678432555474 63.84222366366787C52.93487914292422 48.02253400290111 62.33865547512157 33.96304825573125 76.55820522949713 26.803587842844998C79.3194839851859 25.406594124858263 82.21943824826323 24.299658645463676 85.21113315742508 23.500696812452098C85.21113315742508 23.500696812452098 87.18954531958724 22.967635285395026 89.2351646889566 22.61435137138465C91.80979757715698 22.169931451090324 94.41816390657641 21.947519754922496 97.03122592769526 21.949592290584057C97.56888358535295 21.949592290584057 98.10234079256018 21.957954040028092 98.63579799976739 21.983039288360192C98.63579799976739 21.983039288360192 99.22176083760522 21.99558191252624 99.80772367544307 22.03320978502439C103.89147748718018 22.276159051790103 107.923057662498 23.07084084921262 111.79160881057815 24.395404002963605C112.12344439616376 24.508287620458052 112.45527998174934 24.62535211267451 112.78291511688448 24.74659747961298C112.78291511688448 24.74659747961298 114.49669890066826 25.373728687915424 116.13487457634395 26.14300963676643C132.15382103309062 33.54305876368914 142.400638076905 49.525179564702356 142.39609079256013 67.10303928836024L142.39609079256013 67.10303928836021Z"/>
        </g>
        <g opacity="1">
          <path fill="rgb(47,46,65)" fill-opacity="1" opacity="1" fill-rule="evenodd" d="M114.73793917093812 20.929458858413803C110.61064376553276 11.236468732394545 100.10432588264987 9.405851830986101 100.10432588264987 9.405851830986101C100.10432588264987 9.405851830986101 89.98828445246971 6.719689992587291 81.54005287589317 19.51241826538193C73.6656238331004 31.436293876946028 63.51107267319051 42.60790888065247 76.38906569120849 47.367307961453044L79.79079208760487 40.25644696812466L80.19888265066793 48.43989882876216C82.07152558526573 48.8280635069027 83.96410718024958 49.113934581323846 85.86813821373087 49.29622977020028C100.15232442994716 50.74060074128996 113.61739340517234 53.14217879911057 113.86677414841557 48.00402591549308C114.19830310111828 41.1735887323945 118.70922984661377 30.256070570793348 114.7379391709381 20.929458858413817L114.73793917093812 20.929458858413803Z"/>
        </g>
        <g opacity="1">
          <path fill="rgb(255,184,184)" fill-opacity="1" opacity="1" fill-rule="evenodd" d="M78.05359079255952 99.92708673091201L77.71755475652348 102.61120830244651L77.07908628805501 107.66170496664225C77.07908628805501 107.66170496664225 75.47871466643339 106.88403300222414 73.95395115291987 105.98099332839168C72.92064034210908 105.37894736842132 71.9167326844514 104.73091178650878 70.9422281799469 104.04524833209811L71.04303899075771 101.44056338028193L71.15645115291987 98.55157894736863L75.81895115291988 99.48391401037827L78.05359079255952 99.92708673091201Z"/>
        </g>
        <g opacity="1">
          <path fill="rgb(255,184,184)" fill-opacity="1" opacity="1" fill-rule="evenodd" d="M124.985244677695 102.66974054855459C122.94559419549411 104.25910361879751 120.77303584626566 105.67181883124371 118.49134828129863 106.89242401779107L116.29031224526257 99.30413639733145L116.00048116418148 98.30490733876955L115.278003686704 95.8089251297258L116.05508702003733 95.68767976278731L124.0107401731905 94.43759822090442L124.26701385562293 96.59074870274283L124.985244677695 102.66974054855459Z"/>
        </g>
        <g opacity="1">
          <ellipse fill="rgb(255,184,184)" fill-opacity="1" opacity="1" rx="12.408550675675636" ry="12.350722016308456" cx="100.1114162430101" cy="28.566244625648384"/>
        </g>
        <g opacity="1">
          <path fill="rgb(255,184,184)" fill-opacity="1" opacity="1" fill-rule="evenodd" d="M91.60928448625327 33.36920842105303C91.60928448625327 33.36920842105303 92.52842705382083 48.921819896219716 89.77099935111812 49.836678902891315C87.01357164841541 50.75153790956291 104.01771334886597 49.836678902891315 104.01771334886597 49.836678902891315C104.01771334886597 49.836678902891315 101.71985692994701 40.23065515196477 104.01771334886597 37.48607813194997C106.31556976778491 34.741501111935165 91.60928448625327 33.36920842105303 91.60928448625327 33.36920842105303L91.60928448625327 33.36920842105303Z"/>
        </g>
        <g opacity="1">
          <path fill="rgb(208,205,225)" fill-opacity="1" opacity="1" fill-rule="evenodd" d="M104.24751579255954 47.32081245366967C104.24751579255954 47.32081245366967 92.29865821373073 46.40595344699807 90.00080179481184 47.32081245366967C87.70294537589294 48.235671460341266 81.2689432024695 52.80996649369928 81.2689432024695 52.80996649369928L84.48594218895599 81.62804192735362L110.68151796598295 87.11719596738322L114.81766372048745 81.17061242401783L118.9538052745415 72.47944767976288L117.11552013940636 61.50113123795422L116.65594885562257 55.09711819125301L104.24751579255954 47.32081245366967Z"/>
        </g>
        <g opacity="1">
          <path fill="rgb(208,205,225)" fill-opacity="1" opacity="1" fill-rule="evenodd" d="M78.97108258309972 54.63969286879092C78.97108258309972 54.63969286879092 72.99665589391047 56.011981378798325 72.53708461012667 60.58627641215636C72.07751332634288 65.16057144551439 72.07751332634288 76.59631739065892 72.53708461012667 78.42603540400214C72.99665589391047 80.25575341734535 72.53708461012667 81.17061660489169 72.07751332634288 81.6280461082275C71.61794204255908 82.08547561156328 70.69879527454107 81.17061660489168 71.61793784210865 82.5429051148991C72.53708040967621 83.91519362490652 72.53708461012667 83.91519362490651 72.07751332634288 85.2874821349139C71.61794204255908 86.65977064492131 70.23922399075727 84.83005263157808 71.15836655832484 87.11720014825713C72.07750912589242 89.40434766493615 72.53708461012666 89.86178134914667 72.07751332634288 90.31921085248246C71.61794204255911 90.77664035581824 70.23922399075727 101.29752311341647 70.23922399075727 101.29752311341647L78.05194001553211 102.6698116234239L85.86465604030695 75.68145838398732L78.97108258309972 54.63969286879092Z"/>
        </g>
        <g opacity="1">
          <path fill="rgb(208,205,225)" fill-opacity="1" opacity="1" fill-rule="evenodd" d="M114.81766372048786 54.63969286879092C116.59503724869059 54.738406988058564 118.17865269964611 55.789230447176614 118.95380527454192 57.38426988880576C120.33251912589328 60.128846908820584 124.009093596614 77.96860590066642 123.54951811237976 79.34089859154855C123.08994262814552 80.71319128243069 122.17080006057796 78.88346908821273 123.08994262814552 81.62804610822758C124.0090851957131 84.37262312824242 123.08994262814552 83.9151936249066 123.54951811237976 85.74491163824983C124.009093596614 87.57462965159304 121.71122877679417 85.74491163824983 123.54951811237976 87.57463383246778C125.38780744796536 89.40435602668572 126.30694581508246 89.86178134914681 125.3878032475149 90.77664035581842C124.46866067994733 91.69149936249002 123.08994262814552 89.86178134914681 124.46866067994733 91.69149936249002C125.84737873174913 93.52121737583323 125.8473745312987 96.26579439584806 125.8473745312987 96.26579439584806L114.8176595200374 98.55294191252709L111.60065633310046 72.93687718309785L114.81766372048786 54.63969286879092Z"/>
        </g>
        <g opacity="1">
          <path fill="rgb(47,46,65)" fill-opacity="1" opacity="1" fill-rule="evenodd" d="M116.29029124301026 99.30413639733268L116.84055025201927 107.7327798369176C104.27932888767607 113.7892449356005 89.61837121679923 113.76303801159241 77.07908628805535 107.66170496664334C77.07908628805535 107.66170496664334 75.4787146664337 106.88403300222522 73.9539511529202 105.98099332839277C74.30678899075802 104.68910303928973 74.66382727904632 103.40139362490868 75.02926646823552 102.13876945885977C75.02926646823552 102.13876945885977 75.41990836012741 100.79043736100948 75.81895115292019 99.4839140103794C77.88137232409137 92.76524833209916 80.10341061237965 87.04999258710285 82.18683403580309 84.82994810971218C82.18683403580309 84.82994810971218 82.18683403580309 79.80035581912657 83.10673268445173 79.34045959970476C83.5488869993771 78.99555638119148 83.88623277690758 78.53531496014816 84.08123718895624 78.01094143810354C84.42366375522462 77.25564020632709 84.71279498588558 76.47750642863679 84.94652998174902 75.68219421794049L83.42596691868596 72.16189770200273L76.62123718895624 56.391638250557165C76.2191659977062 55.45531812856729 76.61845962767542 54.3692460977181 77.53273493670399 53.912379540401474L79.78837682859589 52.787724240179095C80.24992920645694 52.55966957351004 80.78376109038224 52.524094908072584 81.27173762798814 52.68887277448283C81.75971416559402 52.85365064089306 82.16159864960609 53.205194076940515 82.38845565742471 53.66570793180251L92.75936781958687 74.76658265381889L104.24759980156884 82.08729429206946L112.30406376553282 78.52100815418954L112.51828673850576 78.42484803558315C112.51828673850576 78.42484803558315 118.49552772949677 69.27709414381145 116.65573043219948 64.7032171979256C115.87024619796524 62.75074870274397 115.00495340517244 60.141882876205784 114.26147367544272 57.78805040771061C113.82882727904634 56.40000000000119 113.44238583760489 55.099747961454106 113.13995340517245 54.079614529282125C113.0423420007211 53.74767442318163 113.16374205679918 53.39041269424249 113.44374716831183 53.185596119683446C113.72375227982451 52.980779545124406 114.1025619866478 52.97215063140712 114.39168763940668 53.164002965160556L115.95845565742471 54.205040770942624C116.31358864358478 54.442144900375055 116.59452408002971 54.77392931772893 116.76914259436163 55.162461082284366C116.84167438324997 55.31426196265183 116.89527815631777 55.4743238387298 116.92875971147876 55.6390808005942L120.33112457634364 72.02392883617617L115.73583178355085 81.62739807264765L115.73583178355085 90.77515196441936L116.05506601778508 95.68767976278853L116.22308403580308 98.25891771682856L116.29029124301026 99.30413639733268Z"/>
        </g>
        <g opacity="1">
          <path fill="rgb(47,46,65)" fill-opacity="1" opacity="1" fill-rule="evenodd" d="M112.40445453129708 17.40790808005663L101.87518538715295 11.918419570049423L87.3349061078737 14.163967383244298L84.32654349526109 27.38891030392579L91.81510655832415 27.102520385467685L93.9073509276935 22.243507783540515L93.9073509276935 27.022247590804973L97.36264146823405 26.89013194958926L99.36835655832412 19.154677538914978L100.62177097273855 27.38891030392579L112.90598831508086 27.13973017049363L112.40445453129708 17.40790808005663Z"/>
        </g>
        <g opacity="1">
          <ellipse fill="rgb(255,184,184)" fill-opacity="1" opacity="1" rx="1.3785878378377276" ry="2.401494440326233" cx="87.47310092769405" cy="28.56624462565115"/>
        </g>
        <g opacity="1">
          <path fill="rgb(108,99,255)" fill-opacity="1" opacity="1" fill-rule="evenodd" d="M362.3254009051716 141.9672370051884C362.3254009051716 162.00754087472149 348.7249304096761 178.96792812453623 329.9831589682347 184.6434488361745C327.215993989724 185.48684429676985 324.3751773213974 186.06897433827663 321.4983372677843 186.38212830244584C319.7416596513958 186.57843208289222 317.9753067166033 186.67655787341081 316.20759269571226 186.67604379540356C315.5499701731897 186.67604379540356 314.8966321101267 186.66361405485503 314.24754910336986 186.63051406968083L314.23903899075725 186.63051406968083C307.64545373950455 186.37526200402766 301.18093045412525 184.733025005735 295.2709388781447 181.81188871756814C291.11935854686226 179.75944829155065 287.3017708614235 177.09677252209397 283.9464446551717 173.9133258413635C275.11307131938287 165.61250390560974 270.1016453093744 154.05882079871287 270.0897844862529 141.9672370051884C270.0897844862528 123.01979706449146 282.24693820246904 106.82527080800509 299.4129904659825 100.31766404744167C301.4669760177394 99.53604839703617 303.57475799116594 98.90241749324053 305.72003822499147 98.42167080800505C313.6248465002208 96.64384649719682 321.8550916708751 96.90747552869558 329.628699756523 99.18750671608507C330.2180229547212 99.35310698294944 330.8029944862527 99.53939839881305 331.3795105110275 99.73809446997686C331.38378656958605 99.73809446997686 331.38805842769415 99.74223771682638 331.3923344862527 99.74223771682638C332.7791779157662 100.20632077145463 334.1416554932034 100.73963992377176 335.4745884614779 101.340168035581C335.93147145697344 101.53886828761956 336.3884090583248 101.74999409933194 336.836794542559 101.97357055596649C336.836794542559 101.97357055596649 338.1817997790455 102.61935264640384 339.4757275380545 103.36036670125931C339.80882325877525 103.54665811712292 340.13762611913563 103.73706351371298 340.46216132183827 103.93579303187458C345.7595756836986 107.1090065465585 350.35689031531814 111.31663272749685 353.977198855622 116.30523700518822C357.27005404283176 120.84079951411935 359.6615572596484 125.9610340623809 361.02297563490134 131.3903221645656C361.8915319399131 134.8494062309712 362.32896342446526 138.4017601865691 362.3254009051716 141.96723700518834L362.3254009051716 141.9672370051884Z"/>
        </g>
        <g opacity="1">
          <path fill="rgb(47,46,65)" fill-opacity="1" opacity="1" fill-rule="evenodd" d="M365.96680080382095 69.43770662713044L372.280077830848 67.52940907338694L372.8247250380552 62.139082550036335C372.8247250380552 62.139082550036335 357.46945756057767 56.51593983691555 352.5603407137308 66.46226170496588C350.8269954321993 69.9741672053365 348.6424083601272 72.08329307635206 346.54128843895603 73.34238858413558C343.6046662597145 75.03315795857154 340.06247555411653 75.32890573205326 336.883898393911 74.14871208302363C326.24188075877584 70.3808534321712 323.73575340517226 81.09574550036977 323.73575340517226 81.09574550036977C323.73575340517226 81.09574550036977 324.6557024592263 82.62102057820519 331.21563413715427 82.99604085989533C334.48027463264975 83.18267928836087 337.1515594975146 85.56435220162993 339.01153155832543 87.9100570496655C342.9943230673344 92.93300593031779 351.1753597903074 91.48136023721179 353.1841874141813 85.45260996293459C353.1841874141813 85.45260996293459 353.2327362204876 85.30685212750093 353.2798232700371 85.15738167531414C356.4178453871543 75.19162292068114 370.70416963264984 83.12631273535862 370.70416963264984 83.12631273535862L371.61620083760477 74.0998794662705L365.96680080382095 69.43770662713044Z"/>
        </g>
        <g opacity="1">
          <ellipse fill="rgb(47,46,65)" fill-opacity="1" opacity="1" rx="7.732609234234182" ry="7.496308376575202" cx="322.9495130898565" cy="86.33548109710983"/>
        </g>
        <g opacity="1">
          <ellipse fill="rgb(47,46,65)" fill-opacity="1" opacity="1" rx="20.62001126126127" ry="19.990016308376592" cx="319.08341849526187" cy="106.3254974054866"/>
        </g>
        <g opacity="1">
          <ellipse fill="rgb(160,97,106)" fill-opacity="1" opacity="1" rx="14.176100225225156" ry="13.74295329873966" cx="318.43906939616386" cy="113.61359822090394"/>
        </g>
        <g opacity="1">
          <path fill="rgb(160,97,106)" fill-opacity="1" opacity="1" fill-rule="evenodd" d="M312.8544067047215 124.02492951816166L315.4318955110278 137.35154295033362L328.3193269412079 135.68571522609346C328.3193269412079 135.68571522609346 326.17142240291963 125.27430031134179 327.46016680607283 122.3591059747962L312.8544067047215 124.02492951816166Z"/>
        </g>
        <g opacity="1">
          <path fill="rgb(160,97,106)" fill-opacity="1" opacity="1" fill-rule="evenodd" d="M338.1996936979647 94.8729694292052C338.1996936979647 94.8729694292052 327.8897468736405 87.3767530318737 323.59393359661345 90.29194736841934C319.2981203195865 93.207141704965 335.19263742544223 102.78565530022091 336.9109492948116 101.95273307635136C338.62926116418095 101.11981085248183 338.19969369796473 94.8729694292052 338.19969369796473 94.8729694292052L338.1996936979647 94.8729694292052Z"/>
        </g>
        <g opacity="1">
          <path fill="rgb(208,205,225)" fill-opacity="1" opacity="1" fill-rule="evenodd" d="M348.0801276619291 151.50925156412123C348.08146339240074 151.57835546746054 348.07860890040865 151.64747663829175 348.07157974526245 151.71623830985877L348.07157974526245 151.7203815567083C347.80683375427145 157.67327822090402 336.5037114231904 175.89212966641918 329.98317997048764 184.64344883617457C327.216014991977 185.48684429676996 324.37519832365035 186.06897433827672 321.4983582700373 186.3821283024459C319.7416806536487 186.57843208289222 317.97532771885625 186.6765578734109 316.2076136979652 186.6760437954036C315.54999117544264 186.6760437954036 314.89665311237957 186.66361405485503 314.2475701056228 186.63051406968086L314.23903899075793 186.63051406968086C308.23521334886607 184.75106873239395 301.1039994074246 182.28382167531464 295.9029134502174 180.33815546330575C293.4518414006679 179.41498487768678 291.4277871439111 178.6118722905852 290.1552858826498 178.04062265381722C289.68153327404127 177.84718452846585 289.226937056283 177.6101926356601 288.7974020650823 177.33272530763486C286.64949332634353 175.66440996293508 291.37654584886604 174.41423644180833 293.5244545876048 174.0002671312079C295.67230872048765 173.58215457375792 292.66614714391113 169.00364103780538 292.66614714391113 169.00364103780538C284.93287843895615 161.0885260785763 294.3827620312985 154.42772788732353 294.3827620312985 154.42772788732353C294.3827620312985 154.42772788732353 298.24723105156875 146.51261292809448 298.24723105156875 144.43035335804257C298.25766901976516 144.2758621446753 298.3158595465457 144.12836578876528 298.413825116884 144.00808501111894C300.0321830673345 141.78920699777572 312.85551142319036 137.76954262416564 312.85551142319036 137.76954262416564L312.85551142319036 131.10465135656L314.18352583760475 130.8893822979981L327.2502282925597 128.77814090437323L328.31776857409125 128.60425414380984L330.46567731282994 131.9367123202368L339.9198327632804 133.1869109266119C339.9198327632804 133.1869109266119 348.08012766192905 144.0163965900663 348.08012766192905 151.50925156412114L348.0801276619291 151.50925156412123Z"/>
        </g>
        <g opacity="1">
          <path fill="rgb(208,205,225)" fill-opacity="1" opacity="1" fill-rule="evenodd" d="M307.2701598578746 151.50925156412242C307.2701598578746 151.50925156412242 301.6079148466133 166.72679937731758 296.4366982925593 179.0589875759834C296.25738526328 179.48953405485662 296.07801762814483 179.91590802075729 295.9029260515683 180.33816800593152C295.6894171551719 180.83493954040154 295.480184317334 181.3275385618989 295.2709514794962 181.81190126019396C291.11937114821376 179.7594608341765 287.301783462775 177.0967850647198 283.9464572565232 173.9133383839893C286.26945337138807 166.59019765752518 289.95461356282954 154.95348960711732 291.3765584502169 150.26319620459688C292.94374651327996 145.09270843587925 296.56909649075743 144.1447243587851 298.41383771823496 144.0081100963685C298.78751906767764 143.97373129816788 299.16371255739915 143.97650718113604 299.53684074751425 144.01639659006753L307.2701598578746 151.50925156412242Z"/>
        </g>
        <g opacity="1">
          <path fill="rgb(208,205,225)" fill-opacity="1" opacity="1" fill-rule="evenodd" d="M338.6292737655326 134.4363444329112L339.91801816868576 133.18697363973106C339.91801816868576 133.18697363973106 356.24209854030744 116.11225618976822 355.8125226731903 111.94771196441613C355.8125226731903 111.94771196441613 347.2209003195867 101.53629704966451 336.4813734276948 104.45149138621008C336.4813734276948 104.45149138621008 331.7559800831002 93.2071667902131 339.0588580335507 93.62362372127315C346.3617359840011 94.04008065233319 373.4253474479651 92.37425292809303 372.9957673803975 104.45149138621008C372.56618731283 116.52872984432713 346.79132025201915 153.59336744254784 346.79132025201915 153.59336744254784L338.6292737655326 134.4363444329112Z"/>
        </g>
        <g opacity="1">
          <path fill="rgb(47,46,65)" fill-opacity="1" opacity="1" fill-rule="evenodd" d="M321.4983372677847 186.38214084506936C319.74165965139616 186.57844462551571 317.9753067166037 186.6765704160344 316.20759269571266 186.67605633802708C315.5499701731901 186.67605633802708 314.89663211012703 186.66362659747855 314.24754910337026 186.63052661230435L314.23903899075765 186.63052661230435C307.64545373950494 186.37527454665118 301.18093045412564 184.7330375483585 295.2709388781451 181.81190126019166C293.39161409642224 180.88336962728192 291.5782636159657 179.82804372419042 289.8435704547217 178.65330475907976L290.1552858826496 178.04063519644072L290.1552858826496 178.03649194959118L290.51828881057753 177.33273785025835L296.4366856912082 179.05898757598112L321.4983372677847 186.38214084506936Z"/>
        </g>
        <g transform="translate(319.08322461751374, 102.99374108899768) rotate(-72.24864583351763) translate(-319.08322461751374, -102.99374108899768)" opacity="1">
          <ellipse fill="rgb(47,46,65)" fill-opacity="1" opacity="1" rx="8.809184684684702" ry="14.073660489251086" cx="319.08322461751374" cy="102.99374108899768"/>
        </g>
        <g opacity="1">
          <path fill="rgb(63,61,86)" fill-opacity="1" opacity="1" fill-rule="evenodd" d="M0.0008205222889937986 236.8465530022229C-3.552713678800501e-14 239.1672127804533 0.17693161552993045 241.48455787216616 0.5300772790463906 243.7784432913299C2.227757955725801 254.615572077065 7.826056316351486 264.46872195311187 16.281766468234867 271.5018235730158C16.512791243009694 271.69414381022864 16.74801646823492 271.8864640474414 16.98744214391059 272.07460340993214C16.98744214391059 272.07460340993214 17.730921873640327 272.67034879169637 18.499604306072747 273.2327057079306C18.499604306072747 273.2327057079306 19.60852322499166 274.0479762787238 20.76784754931599 274.7921719792427C33.09527577020012 282.69767275014334 48.49813028499016 284.19543760553177 62.12968313490149 278.81417346182235C62.448917369135735 278.6887472201619 62.768151603369965 278.5591401037794 63.083185387153755 278.4253521126749C63.5872394412078 278.212127501852 64.08289259436094 277.9905411415852 64.57854574751411 277.7564121571522C64.57854574751411 277.7564121571522 66.46244777454115 276.88469977761184 68.25393989165826 275.8373906597468C68.25393989165826 275.8373906597468 70.10003786463122 274.7649962935496 71.82432277454112 273.5295478131938C72.34937908084743 273.15326908821237 72.85763358535192 272.77280948850887 73.36588808985644 272.37562638991733L73.37428899075735 272.3714455151953C80.09511924904655 267.1178079096441 85.1931433428899 260.08599476924036 88.0842664682348 252.08166048925028L88.0842664682348 252.07747961452827C95.1995937496678 232.24702454007897 87.61924456515894 210.15287057984938 69.80390610787447 198.79641215715287C69.40486331508168 198.54555967383183 69.00162007183843 198.29470719051085 68.59417637814474 198.06057820607796C68.1741313330997 197.80136397331293 67.74568538715377 197.55887323943597 67.31303899075735 197.32474425500308C61.49030565207829 194.10865018316272 55.02281333934088 192.21942752201105 48.37740836012674 191.79344699777553C48.37740836012674 191.79344699777553 46.88414822499161 191.69310600444715 45.36568538715377 191.69310600444715C45.31527998174837 191.69310600444715 45.26487457634296 191.69310600444715 45.21446917093755 191.69728687916916C45.21446917093755 191.69728687916916 43.173050252018626 191.69728687916916 41.182036738505126 191.8854262416599C17.848244772499037 194.03599970648506 0.0003079169631125978 213.52214958518354 0.0008205222889937986 236.84655300222295L0.0008205222889937986 236.8465530022229Z"/>
        </g>
        <g opacity="1">
          <path fill="rgb(255,184,184)" fill-opacity="1" opacity="1" fill-rule="evenodd" d="M92.12153781958651 252.35280693847338C92.12153781958651 252.35280693847338 105.37080025201894 238.7257098591556 108.90393774075767 247.07779730170552C112.43707522949639 255.42988474425542 95.65467530832522 259.8257316827283 95.65467530832522 259.8257316827283L92.12153781958651 252.35280693847338Z"/>
        </g>
        <g opacity="1">
          <path fill="rgb(47,46,65)" fill-opacity="1" opacity="1" fill-rule="evenodd" d="M16.9874421439106 272.0746034099345C16.9874421439106 272.0746034099345 17.73092187364033 272.6703487916988 18.499604306072758 273.23270570793306C18.499604306072758 273.23270570793306 19.608523224991668 274.04797627872625 20.767847549316 274.79217197924515C33.095275770200125 282.6976727501459 48.49813028499017 284.1954376055344 62.1296831349015 278.81417346182485C62.44891736913575 278.68874722016443 62.76815160336998 278.5591401037819 63.08318538715376 278.4253521126774C63.587239441207814 278.2121275018546 64.08289259436097 277.9905411415877 64.57854574751411 277.7564121571548L63.415020972739356 276.09242401779227C62.57139294511743 275.30648990377324 61.626400139076964 274.6358398759346 60.604944824090715 274.0981467753905C52.64509122048713 269.79602668643565 37.6536835628295 269.92981467754015 27.509595724991655 270.63638250556096C26.064640770036704 270.7367234988893 24.720496625892565 270.84960711638377 23.510766896162828 270.9624907338782C22.754685815081743 271.02938472943043 22.049010139406075 271.1004595997048 21.406341220487157 271.167353595257C21.14591329255923 271.1966197183111 20.89808671598265 271.2217049666432 20.662861490757425 271.24679021497536C18.39881869796464 271.4976426982963 17.04207320246914 271.6941438102311 17.04207320246914 271.6941438102311L16.9874421439106 272.0746034099345Z"/>
        </g>
        <g opacity="1">
          <ellipse fill="rgb(255,184,184)" fill-opacity="1" opacity="1" rx="12.691661036036034" ry="12.63251297257236" cx="55.91679687364015" cy="198.4878636026692"/>
        </g>
        <g opacity="1">
          <path fill="rgb(255,184,184)" fill-opacity="1" opacity="1" fill-rule="evenodd" d="M47.51568595021708 202.6798301853221L38.24120476778461 212.3506783988135L35.59135060111793 227.29652788732344L58.99836073625316 231.25278093402468L57.231794092109 217.62568385470678C57.231794092109 217.62568385470678 57.673433652919805 211.03192598962156 59.44000449751441 209.71317358042958C61.206575342109005 208.39442117123764 47.51568595021706 202.67983018532215 47.51568595021706 202.67983018532215L47.51568595021708 202.6798301853221Z"/>
        </g>
        <g opacity="1">
          <path fill="rgb(87,90,137)" fill-opacity="1" opacity="1" fill-rule="evenodd" d="M20.13357953129868 273.0153002223866C20.90786158824845 272.76773667550015 21.694376416475215 272.5598141171361 22.490032234001394 272.39234988880617C24.492420600260203 271.9590160624163 26.528944075956115 271.70021619355975 28.576484936704087 271.6188880652332C33.42202414454682 271.3647914436916 38.25630211115889 272.2964217190809 42.65639484661395 274.3322757598217C49.09148493670402 277.4052186805037 56.72790385562293 278.241393624907 61.97846691868598 278.4002668643436C62.36070790967698 278.41280948850965 62.73034754931662 278.4211712379537 63.083185387154444 278.4253521126757C63.58723944120849 278.2121275018528 64.08289259436165 277.990541141586 64.5785457475148 277.756412157153C64.5785457475148 277.756412157153 66.46244777454183 276.88469977761264 68.25393989165894 275.83739065974754L68.23713808985713 274.2904670126015L67.95990836012739 243.6864640474421L67.95990836012739 243.68228317272008L67.82969439616342 229.053402520385L59.4413948466139 219.3830392883613L57.28656376553283 216.96649369903585L56.261653855622924 217.88210526315746L50.16680025201933 223.34232765011075L41.28284754931665 215.15199406968077L38.241721423190526 212.35080800592982L23.653557008776147 261.2294143810225L21.771755206974355 267.5341734618231L20.66283628805544 271.2467902149736L20.490617819586976 271.8153891771678L20.490617819586976 271.8195700518898L20.13357953129868 273.0153002223866Z"/>
        </g>
        <g opacity="1">
          <path fill="rgb(208,205,225)" fill-opacity="1" opacity="1" fill-rule="evenodd" d="M54.027014215982184 230.4121868050404C54.048188786878605 232.60805548704448 54.23352043537616 234.7993109113319 54.581473675441714 236.96779836916235C56.09363583760381 246.57962935507737 57.39157502679299 262.55893254262367 60.60491962138757 274.09814677538867C61.024964666432616 275.61998517420255 61.48281376553171 277.0582060785762 61.97846691868486 278.4002668643434L62.129683134901086 278.81417346182303C62.448917369135316 278.68874722016255 62.768151603369546 278.55914010378 63.08318538715333 278.4253521126755C63.58723944120738 278.2121275018527 64.08289259436053 277.9905411415858 64.57854574751369 277.7564121571529C64.57854574751369 277.7564121571529 66.46244777454072 276.88469977761247 68.25393989165784 275.8373906597474C68.25393989165784 275.8373906597474 70.10003786463079 274.7649962935502 71.82432277454072 273.5295478131944L71.6899083601263 273.00275759822034L71.6899083601263 272.99857672349833L69.59808403580197 264.6619125277978C69.59808403580197 264.6619125277978 70.94222817994611 257.68403261675263 72.01754349526142 249.8783395107482L72.01754349526142 249.87415863602618C73.25247592769385 240.93962935507736 74.13457052228846 230.93061527057034 72.2485682700362 229.05340252038502L57.450381333099266 215.5784432913265L57.446180882648825 215.5826241660485C56.98512602142631 216.31349752259447 56.58879110982859 217.0828886943862 56.2616538556218 217.88210526315748C55.2535457475137 220.26102297998477 53.97660881057676 224.45862120088913 54.02701421598216 230.41218680504034L54.027014215982184 230.4121868050404Z"/>
        </g>
        <g opacity="1">
          <path fill="rgb(208,205,225)" fill-opacity="1" opacity="1" fill-rule="evenodd" d="M7.985876828595565 262.4335063009646C10.32402100529659 265.81769005005646 13.115047941730843 268.86858861233924 16.28176646823517 271.50182357301804C16.51279124300997 271.6941438102308 16.748016468235193 271.8864640474435 16.98744214391087 272.0746034099343C16.98744214391087 272.0746034099343 17.7309218736406 272.67034879169853 18.499604306073024 273.2327057079328C18.499604306073024 273.2327057079328 19.608523224991934 274.04797627872597 20.767847549316265 274.79217197924487C21.33910881057753 274.0019866567838 21.91457052228923 273.1992587101567 22.490032234000946 272.39234988880753C22.490032234000946 272.39234988880753 23.000386963730676 271.6837208895488 23.510741693460403 270.9624907338779C24.048399351118064 270.201571534471 24.58608221147842 269.436471460342 25.115313765532473 268.66719051149096C25.182520972739677 268.5752112676066 25.245527729496438 268.4832320237222 25.308534486253198 268.39125277983794C25.980606558325263 267.42547071905216 26.64427772949644 266.45550778354436 27.291147098865803 265.4897257227586C32.0628588105775 258.3947813194968 36.019683134901825 251.58413639733226 36.473331783550464 247.5161452928104C37.01939034210903 242.64542624166137 38.124108810577496 235.11148999258796 39.24562908084776 227.91620459599784C39.96810655832523 223.2419866567836 40.69898493670362 218.7099184581179 41.28284754931622 215.15199406968202C41.988523224991894 210.82896960711713 42.475775477244134 207.93580429948184 42.475775477244134 207.93580429948184C42.475775477244134 207.93580429948184 19.331293495262194 205.63214232765085 16.088545747514452 207.89399555226169L16.084345297064008 207.89399555226169C15.896082190767423 208.00154947681924 15.763069047628145 208.18416085653936 15.718906107874817 208.39570051890365C15.36606827003698 210.84569310600523 17.256270972739678 233.61471593773248 18.037554756523466 242.8126403261684L18.037554756523466 242.81682120089042C18.239176378145082 245.17483454410763 18.36939034210905 246.63814069681334 18.36939034210905 246.63814069681334C18.36939034210905 246.63814069681334 17.046248450217156 248.39828895478223 15.105640342109048 251.22037939214323C13.127228179946911 254.10102297998606 10.501946648415384 258.0853965900676 7.985876828595565 262.4335063009646L7.985876828595565 262.4335063009646Z"/>
        </g>
        <g opacity="1">
          <path fill="rgb(208,205,225)" fill-opacity="1" opacity="1" fill-rule="evenodd" d="M70.92271708760454 241.36321049666594L73.13092749300993 258.50698345441236L92.56318158084787 250.15488765011293L98.74616903580285 262.9028220311359L66.94791903580273 274.7715853521144C66.94791903580273 274.7715853521144 61.206592143910804 244.4402966641975 70.92271708760454 241.363210496666L70.92271708760454 241.36321049666594Z"/>
        </g>
        <g opacity="1">
          <path fill="rgb(47,46,65)" fill-opacity="1" opacity="1" fill-rule="evenodd" d="M68.5969528758921 200.7994274277261C68.5969528758921 200.7994274277261 70.32160322499118 198.9457111934785 70.14704510562183 196.62507487027608C70.03202245843426 195.3049880489402 70.11685880650124 193.97519239198107 70.39871509436055 192.68018962194387C70.68057138221988 191.3851868519067 69.85893200877499 188.88191928836343 69.06189653580199 186.68028320237383C68.264861062829 184.4786471163842 68.93676931733353 183.71245583395276 65.51062570246867 182.51050034099495C62.0844820876038 181.30854484803717 64.26561218895516 176.9619695181632 54.164318540306525 180.4264597183115C53.37871956727208 181.21604748119495 52.19294501901316 181.457540650548 51.158896243009245 181.03853977761474C49.29398865291917 180.35872954781485 48.170128731748 182.90884154188456 48.170128731748 182.90884154188456C48.170128731748 182.90884154188456 47.00688958760386 181.95890499629522 46.35416058985612 182.94651540400463C45.70143159210838 183.93412581171407 42.54454945246874 181.68315122312993 41.38694311237864 188.86800533728862C40.22933677228854 196.05285945144732 44.20337034210837 202.4600290585638 44.20337034210837 202.4600290585638C44.20337034210837 202.4600290585638 44.76098013940566 190.9625524981485 51.321172245261515 190.75411916975716C57.88136435111737 190.54568584136578 65.30007812363988 188.07233888806698 66.22022039841465 192.9139590511508C66.70109117249784 195.62564025059916 67.49874712156794 198.27208482161595 68.5969528758921 200.79942742772616L68.5969528758921 200.7994274277261Z"/>
        </g>
        <g opacity="1">
          <path fill="rgb(255,184,184)" fill-opacity="1" opacity="1" fill-rule="evenodd" d="M16.281766468235233 271.50182357301765C16.51279124301001 271.6941438102304 16.74801646823524 271.8864640474431 16.98744214391091 272.07460340993384C16.98744214391091 272.07460340993384 17.730921873640643 272.67034879169813 18.499604306073067 273.2327057079323C18.499604306073067 273.2327057079323 19.608523224991977 274.0479762787255 20.767847549316308 274.79217197924436C24.48946498094503 277.18885769724875 28.545970254443123 279.0259236088304 32.80633854030725 280.24403261675343C33.84805025201897 277.5849962935511 31.352982684451412 274.27792438843636 28.576505938955926 271.6188880652341C28.223668101118086 271.28023721275076 27.862429362379352 270.9499481097115 27.509591524541513 270.6363825055603C26.669501434451426 269.8963676797634 25.84201269571269 269.22742772424084 25.115334767784766 268.6671905114906C25.08173116418116 268.64210526315856 25.05232801102801 268.62120088954845 25.02292485787486 268.5961156412164C23.649377560577562 267.54253521126833 22.653870803820816 266.8944996293558 22.653870803820816 266.8944996293558L21.771776209226225 267.53417346182425L16.281766468235233 271.50182357301765Z"/>
        </g>
        <g opacity="1">
          <path fill="rgb(208,205,225)" fill-opacity="1" opacity="1" fill-rule="evenodd" d="M0.5300772790457202 243.7784432913257C2.22775795572577 254.61557207706485 7.826056316351439 264.4687219531118 16.281766468234792 271.50182357301577C16.512791243009616 271.6941438102286 16.748016468234844 271.88646404744134 16.987442143910517 272.074603409932C16.987442143910517 272.074603409932 17.730921873640245 272.6703487916963 18.49960430607267 273.23270570793056L20.490617819586177 271.81957005188906L20.490617819586177 271.81538917716705L21.406316017784373 271.16735359525455L25.02290385562219 268.5961156412145L25.308534486252825 268.3912527798357L28.085032234000565 266.417879911044L27.291147098865437 265.48972572275636L23.653557008775365 261.22941438102174L15.105640342108739 251.2204002965147L13.06842187364028 248.8373017049654L18.03755475652315 242.8168421052619L18.03755475652315 242.8126612305399L23.22511106282943 236.52880652334943L18.81043763940603 208.39570051890175C17.974404886225614 207.960024538615 17.02588043307431 207.7851904717129 16.088545747514154 207.89399555225978L16.084345297063706 207.89399555225978C15.084638089856506 208.06541141586243 14.063928630397047 208.7510748702731 13.509469170937592 210.5906597479603C12.505561513279947 213.92281690140732 4.3986921439106075 234.17079318013225 0.5300772790457561 243.7784432913257L0.5300772790457202 243.7784432913257Z"/>
        </g>
      </g>
    </g>
  </g>
</svg>